<?xml version="1.0" encoding="UTF-8"?>
<svg version="1.1" xmlns="http://www.w3.org/2000/svg" width="1024" height="1024">
<path d="M0 0 C17.52781582 9.25510039 34.71114573 18.94563288 51.6796875 29.1953125 C56.64051697 32.18998727 61.62451009 35.14204448 66.62304688 38.07324219 C93.05713538 53.57911454 118.77321132 69.93770766 142 90 C142.70640625 90.60457031 143.4128125 91.20914063 144.140625 91.83203125 C161.27607039 106.62755237 161.27607039 106.62755237 168.03515625 114.7109375 C170.90987619 118.06001481 173.92797977 121.27217678 176.9375 124.5 C177.53046875 125.13663574 178.1234375 125.77327148 178.734375 126.42919922 C180.15529343 127.95369162 181.5775104 129.47697354 183 131 C183.42708252 130.56244385 183.85416504 130.1248877 184.29418945 129.67407227 C192.50845363 121.28562291 200.63730725 113.11450817 210 106 C210.88945312 105.29359375 211.77890625 104.5871875 212.6953125 103.859375 C223.24565242 95.74372891 234.56712482 90.72317723 248 92 C252.62017803 93.23846439 256.94309889 95.09815466 261.31640625 97.015625 C268.1856544 99.94464452 275.16955134 101.56350677 282.4375 103.16796875 C286.19863182 104.04639098 287.79460382 104.86306921 291 107 C291 107.99 291 108.98 291 110 C289.75605469 110.35191406 288.51210938 110.70382812 287.23046875 111.06640625 C268.74920425 116.47310975 256.64749902 123.87971329 247.12036133 140.99438477 C243.12769021 148.39127469 239.85924308 156.14283402 236.49731445 163.84008789 C226.70322175 186.18627759 214.71340491 201.77511806 192 212 C187.79648772 213.63402095 183.54248317 215.0564292 179.25 216.4375 C177.50432739 217.01262329 177.50432739 217.01262329 175.72338867 217.59936523 C168.97355607 219.79929373 162.19310304 221.81947987 155.3527832 223.71704102 C140.80532772 227.76247893 127.39710762 232.72118895 116 243 C115.41347656 243.495 114.82695312 243.99 114.22265625 244.5 C103.74521699 254.00334626 97.51029737 267.54386008 94 281 C90.3044628 280.42745198 87.70791063 279.38959119 84.5 277.5 C73.30598742 271.80148385 58.06053907 273.71477015 45.6875 273.4375 C43.86783105 273.39419386 42.04816948 273.35057626 40.22851562 273.30664062 C35.81908719 273.20084182 31.40958075 273.0992387 27 273 C28.26119232 269.21642303 29.48692098 268.82202956 32.85546875 266.80078125 C38.82450103 263.12879061 44.57352887 259.20721362 50.3125 255.1875 C51.81852783 254.1353833 51.81852783 254.1353833 53.35498047 253.06201172 C56.23903293 251.04470783 59.12018952 249.02335348 62 247 C62.72783691 246.48937012 63.45567383 245.97874023 64.20556641 245.45263672 C72.64481118 239.5211504 80.88219056 233.3617548 89 227 C89.85078125 226.33355469 90.7015625 225.66710937 91.578125 224.98046875 C101.77064689 216.908649 111.6140868 208.46972108 121.1484375 199.6328125 C123.84523279 197.14289466 126.57241212 194.69207228 129.3125 192.25 C133.34855825 188.63124018 137.22395122 184.88858003 141 181 C131.81397453 181.60588679 127.32733064 185.67266936 121 192 C119.5126078 193.36800286 118.01370152 194.72366653 116.5 196.0625 C115.55640625 196.91521484 115.55640625 196.91521484 114.59375 197.78515625 C113 199 113 199 111 199 C111 199.66 111 200.32 111 201 C109.50708008 202.29467773 109.50708008 202.29467773 107.45703125 203.74609375 C104.6945393 205.74927946 102.00099092 207.77922168 99.38671875 209.97265625 C90.09682922 217.74342861 80.43149104 224.68689004 70.36474609 231.41259766 C66.49123823 234.01279879 62.6528082 236.66362316 58.8125 239.3125 C57.48577297 240.22539979 56.15896016 241.13817493 54.83203125 242.05078125 C53.43017578 243.01564453 53.43017578 243.01564453 52 244 C40.90161198 239.27112163 34.10441923 222.28247189 29.75 211.5625 C26.22304521 202.54024974 22.61357966 192.76454481 23 183 C22.34 182.67 21.68 182.34 21 182 C20.45411389 158.45411256 20.64477373 133.35706801 32 112 C37.43908299 112.57032624 41.66458511 114.49899951 46.51171875 116.859375 C47.32059036 117.24563049 48.12946198 117.63188599 48.96284485 118.02984619 C51.5411936 119.2628204 54.11443196 120.50604887 56.6875 121.75 C59.23743017 122.97435302 61.78837474 124.19657339 64.33940125 125.41864014 C65.98893938 126.20910566 67.63804235 127.00047992 69.28669739 127.79278564 C74.36498803 130.23050068 79.46671335 132.60451551 84.60522461 134.91308594 C89.58759807 137.17443028 94.50672815 139.57363586 99.43164062 141.95703125 C100.22634766 142.33730469 101.02105469 142.71757812 101.83984375 143.109375 C102.54488037 143.44936523 103.24991699 143.78935547 103.97631836 144.13964844 C105.96903759 144.98683659 107.88820454 145.53657246 110 146 C101.93311632 137.93311632 88.86063001 132.5766532 78.9140625 127.06591797 C75.88732661 125.38036581 72.88089287 123.65986393 69.875 121.9375 C68.75351563 121.29683594 67.63203125 120.65617187 66.4765625 119.99609375 C64.00701521 118.58179377 61.54513848 117.15486481 59.0859375 115.72265625 C58.12324951 115.1649353 58.12324951 115.1649353 57.14111328 114.59594727 C55.90563656 113.87995772 54.67214036 113.16053671 53.44091797 112.43725586 C50.41926537 110.57619677 50.41926537 110.57619677 47 110 C45.99841647 109.00158604 44.99889442 108.00110436 44 107 C41.93145181 105.53244892 39.8545556 104.100896 37.75 102.6875 C20.75660632 91.0152227 11.26039974 76.42564149 6.76171875 56.2734375 C6.16604187 53.13803225 6.16604187 53.13803225 5 51 C10.45852013 51.51864444 14.22836269 53.49626578 18.875 56.1875 C19.63441895 56.61732178 20.39383789 57.04714355 21.17626953 57.48999023 C25.9349592 60.19670255 30.65547194 62.96790856 35.375 65.7421875 C36.99172607 66.69121948 36.99172607 66.69121948 38.64111328 67.65942383 C40.77303565 68.91401653 42.90170801 70.17415076 45.02685547 71.44018555 C46.00541504 72.01808838 46.98397461 72.59599121 47.9921875 73.19140625 C49.29712158 73.96786499 49.29712158 73.96786499 50.62841797 74.76000977 C52.87427622 76.07255862 52.87427622 76.07255862 55.06298828 76.42553711 C57.78720398 77.23346244 59.03010042 78.9806863 61 81 C62.79048522 82.16463999 64.62195841 83.26761931 66.48046875 84.3203125 C67.55401611 84.93318115 68.62756348 85.5460498 69.73364258 86.17749023 C70.87341553 86.82016846 72.01318848 87.46284668 73.1875 88.125 C74.36851735 88.79749569 75.54909744 89.47075984 76.72924805 90.14477539 C79.07318861 91.48322885 81.41842408 92.81936303 83.76464844 94.15380859 C87.96555821 96.5509773 92.14499139 98.98281432 96.3125 101.4375 C96.97805908 101.82881104 97.64361816 102.22012207 98.3293457 102.62329102 C103.76093753 105.83023789 109.12208139 109.14515754 114.4609375 112.50390625 C116.9881112 114.11223537 116.9881112 114.11223537 120 115 C106.02634226 104.15686133 91.81474941 93.75962089 77.04101562 84.02807617 C74.12226178 82.0815373 71.24480118 80.08651174 68.37109375 78.07421875 C62.82182178 74.21099974 57.19884681 70.46694258 51.55078125 66.75 C49.8613098 65.63544445 48.17185691 64.52086075 46.48242188 63.40625 C43.89188595 61.69771877 41.29984226 59.99172019 38.70288086 58.29296875 C13.53749926 41.8174673 13.53749926 41.8174673 6 30 C5.62230469 29.41089844 5.24460937 28.82179688 4.85546875 28.21484375 C0.28840766 20.15834273 -1.41182502 10.16310659 -1 1 C-0.67 0.67 -0.34 0.34 0 0 Z M122 117 C122.33 117.66 122.66 118.32 123 119 C123.66 118.67 124.32 118.34 125 118 C124.01 117.67 123.02 117.34 122 117 Z " fill="#5E9A8C" transform="translate(83,344)"/>
<path d="M0 0 C0.66 0 1.32 0 2 0 C10.47550256 27.89510067 10.60961769 58.60828093 0 86 C-0.25265625 86.6604834 -0.5053125 87.3209668 -0.765625 88.00146484 C-6.32012065 102.23145647 -14.18651661 114.30095648 -24 126 C-24.76183594 126.96292969 -24.76183594 126.96292969 -25.5390625 127.9453125 C-26.64517772 129.33604217 -27.815126 130.67572906 -29 132 C-29.66 132 -30.32 132 -31 132 C-31.26337158 132.60142822 -31.52674316 133.20285645 -31.7980957 133.82250977 C-33.06351079 136.11506251 -34.18618764 137.23561304 -36.23046875 138.83984375 C-36.86919922 139.34580078 -37.50792969 139.85175781 -38.16601562 140.37304688 C-38.83310547 140.88931641 -39.50019531 141.40558594 -40.1875 141.9375 C-40.83525391 142.44990234 -41.48300781 142.96230469 -42.15039062 143.49023438 C-48.63485323 148.58840827 -55.03836811 153.31297496 -62.4375 157 C-63.46097534 157.5115564 -63.46097534 157.5115564 -64.50512695 158.03344727 C-80.74703986 165.88980185 -101.64385665 171.23231501 -119.375 165.4375 C-125.63413062 162.60598853 -130.2262819 158.42199316 -132.9375 152.0625 C-135.53773194 143.5792433 -133.5245362 136.8860024 -130 129 C-128.48828125 126.16796875 -128.48828125 126.16796875 -127 124 C-126.34 124 -125.68 124 -125 124 C-124.77054688 123.41992188 -124.54109375 122.83984375 -124.3046875 122.2421875 C-117.79361385 111.05249806 -100.56635249 106.06397806 -88.93115234 102.31542969 C-76.40152294 98.23797313 -65.27622278 93.42009058 -55 85 C-54.30777344 84.47019531 -53.61554688 83.94039062 -52.90234375 83.39453125 C-37.79050518 71.22694751 -29.76075284 52.87962753 -22.94873047 35.25415039 C-18.49474039 23.90034391 -12.62619853 12.77921314 -4 4 C-3.01 3.67 -2.02 3.34 -1 3 C-0.67 2.01 -0.34 1.02 0 0 Z " fill="#99C5C6" transform="translate(352,468)"/>
<path d="M0 0 C0.25394531 0.53238281 0.50789063 1.06476563 0.76953125 1.61328125 C5.2571102 10.31775978 10.71972918 18.49702159 17 26 C17.60328125 26.73734375 18.2065625 27.4746875 18.828125 28.234375 C37.9708106 50.80095558 66.28123677 63.82961854 95 68 C94.42545663 71.24684828 93.55222766 72.79878822 91.12890625 75.015625 C90.26749023 75.80839844 90.26749023 75.80839844 89.38867188 76.6171875 C88.78603516 77.15601563 88.18339844 77.69484375 87.5625 78.25 C86.96373047 78.80429687 86.36496094 79.35859375 85.74804688 79.9296875 C81.27170567 84 81.27170567 84 79 84 C79 84.66 79 85.32 79 86 C77.50708008 87.29467773 77.50708008 87.29467773 75.45703125 88.74609375 C72.6945393 90.74927946 70.00099092 92.77922168 67.38671875 94.97265625 C58.09682922 102.74342861 48.43149104 109.68689004 38.36474609 116.41259766 C34.49123823 119.01279879 30.6528082 121.66362316 26.8125 124.3125 C25.48577297 125.22539979 24.15896016 126.13817493 22.83203125 127.05078125 C21.43017578 128.01564453 21.43017578 128.01564453 20 129 C8.90161198 124.27112163 2.10441923 107.28247189 -2.25 96.5625 C-5.77695479 87.54024974 -9.38642034 77.76454481 -9 68 C-9.66 67.67 -10.32 67.34 -11 67 C-12.2304068 13.92845333 -12.2304068 13.92845333 -1.34375 1.0390625 C-0.9003125 0.69617188 -0.456875 0.35328125 0 0 Z " fill="#9BC8C0" transform="translate(115,459)"/>
<path d="M0 0 C5.48138443 4.43767136 10.8184023 8.91835784 15.62329102 14.09399414 C15.62329102 14.75399414 15.62329102 15.41399414 15.62329102 16.09399414 C16.61329102 16.42399414 17.60329102 16.75399414 18.62329102 17.09399414 C17.96329102 18.08399414 17.30329102 19.07399414 16.62329102 20.09399414 C16.62329102 19.43399414 16.62329102 18.77399414 16.62329102 18.09399414 C-6.5563619 21.71213793 -21.8491718 32.15735003 -38.00170898 48.78149414 C-40.37670898 51.09399414 -40.37670898 51.09399414 -42.37670898 51.09399414 C-43.36670898 53.07399414 -43.36670898 53.07399414 -44.37670898 55.09399414 C-47.25954189 53.79995347 -49.19250131 52.48981021 -51.30249023 50.14477539 C-51.84413818 49.55132324 -52.38578613 48.95787109 -52.94384766 48.34643555 C-53.51981689 47.70625488 -54.09578613 47.06607422 -54.68920898 46.40649414 C-65.28621657 34.860145 -76.01948937 23.7753647 -88.37670898 14.09399414 C-90.14903528 12.61661665 -91.91983749 11.13740914 -93.68920898 9.65649414 C-100.93424449 3.71828322 -108.58406218 -1.71090799 -116.37670898 -6.90600586 C-116.37670898 -7.56600586 -116.37670898 -8.22600586 -116.37670898 -8.90600586 C-77.8963543 -27.41105126 -34.53389231 -27.38921804 0 0 Z " fill="#9AC7C0" transform="translate(312.376708984375,409.906005859375)"/>
<path d="M0 0 C2.02408755 0.09002398 4.04544287 0.24641038 6.0625 0.4375 C7.71958984 0.59025391 7.71958984 0.59025391 9.41015625 0.74609375 C10.26480469 0.82988281 11.11945313 0.91367187 12 1 C10.67242726 7.17517158 9.18683265 13.2919285 7.57421875 19.3984375 C7.34475052 20.27287506 7.11528229 21.14731262 6.87886047 22.04824829 C6.14998964 24.82425093 5.41879076 27.59963399 4.6875 30.375 C4.20882993 32.19657401 3.73031324 34.01818832 3.25195312 35.83984375 C2.30602355 39.44165094 1.35753961 43.04277297 0.40771484 46.64355469 C-0.54970295 50.27713526 -1.49613913 53.91335465 -2.43505859 57.55175781 C-2.66364059 58.43312408 -2.8922226 59.31449036 -3.12773132 60.2225647 C-3.56249343 61.89988464 -3.99458517 63.57789962 -4.42366028 65.25668335 C-5.88763829 70.88763829 -5.88763829 70.88763829 -7 72 C-9.70773562 72.08877822 -12.30459639 72.17002546 -15 72 C-15.69996094 71.95875 -16.39992188 71.9175 -17.12109375 71.875 C-19 71 -19 71 -20.203125 68.4921875 C-20.54859375 67.29851562 -20.8940625 66.10484375 -21.25 64.875 C-21.4461792 64.20791016 -21.6423584 63.54082031 -21.84448242 62.85351562 C-25.53985572 49.9937827 -28.72175154 36.97125816 -32 24 C-33.8046555 26.70698326 -34.49868365 28.30897541 -35.31274414 31.36376953 C-35.54961441 32.24122833 -35.78648468 33.11868713 -36.03053284 34.0227356 C-36.27955856 34.96656097 -36.52858429 35.91038635 -36.78515625 36.8828125 C-37.17688271 38.33782669 -37.17688271 38.33782669 -37.57652283 39.82223511 C-38.41041839 42.92178005 -39.23700384 46.02320838 -40.0625 49.125 C-40.89230767 52.23372182 -41.72370992 55.34198558 -42.55918884 58.44918823 C-43.07909222 60.38357532 -43.5955803 62.31888403 -44.1084137 64.25515747 C-44.34213181 65.12631195 -44.57584991 65.99746643 -44.81665039 66.89501953 C-45.02157608 67.66540558 -45.22650177 68.43579163 -45.43763733 69.22952271 C-46 71 -46 71 -47 72 C-48.810285 72.09879565 -50.62452727 72.12971514 -52.4375 72.125 C-53.42621094 72.12757813 -54.41492188 72.13015625 -55.43359375 72.1328125 C-58 72 -58 72 -60 71 C-60.7071228 69.03779602 -60.7071228 69.03779602 -61.35693359 66.42700195 C-61.60414154 65.45120682 -61.85134949 64.47541168 -62.10604858 63.470047 C-62.36753693 62.4035643 -62.62902527 61.3370816 -62.8984375 60.23828125 C-63.31278549 58.59221138 -63.31278549 58.59221138 -63.73550415 56.91288757 C-64.623048 53.38130495 -65.49946477 49.84707706 -66.375 46.3125 C-67.52523564 41.70356968 -68.68029455 37.09585817 -69.8359375 32.48828125 C-70.11177673 31.38235626 -70.38761597 30.27643127 -70.67181396 29.13699341 C-72.40080206 22.24282078 -74.25145177 15.41532837 -76.35791016 8.62573242 C-77 6 -77 6 -77 1 C-72.71 1 -68.42 1 -64 1 C-63.67201416 2.38823975 -63.34402832 3.77647949 -63.00610352 5.20678711 C-61.79276236 10.33818268 -60.57471978 15.46845246 -59.35522461 20.59838867 C-58.82723934 22.82236606 -58.30054401 25.04665009 -57.77514648 27.27124023 C-57.02142713 30.46158296 -56.26313444 33.65080815 -55.50390625 36.83984375 C-55.26845596 37.84087631 -55.03300568 38.84190887 -54.79042053 39.87327576 C-54.57026779 40.79415482 -54.35011505 41.71503387 -54.12329102 42.66381836 C-53.93009781 43.47878281 -53.7369046 44.29374725 -53.53785706 45.13340759 C-53.16366833 46.99755672 -53.16366833 46.99755672 -52 48 C-51.8518837 47.45542648 -51.7037674 46.91085297 -51.55116272 46.34977722 C-50.01112264 40.68822874 -48.46989697 35.02700398 -46.92797852 29.3659668 C-46.35247798 27.25244311 -45.77728108 25.13883673 -45.20239258 23.02514648 C-44.37661027 19.98920308 -43.54974098 16.95355755 -42.72265625 13.91796875 C-42.46533218 12.97100632 -42.20800812 12.02404388 -41.94288635 11.04838562 C-41.70271286 10.16769913 -41.46253937 9.28701263 -41.21508789 8.37963867 C-40.89865074 7.21714851 -40.89865074 7.21714851 -40.57582092 6.03117371 C-40.09650276 4.34040769 -39.55573695 2.66721086 -39 1 C-34.71 1 -30.42 1 -26 1 C-21.63973116 16.65923473 -17.31930759 32.32942972 -13 48 C-10.6943798 39.47276131 -8.43822027 30.93316324 -6.25 22.375 C-6.02739502 21.52260742 -5.80479004 20.67021484 -5.57543945 19.79199219 C-4.56037682 15.78589955 -3.69357879 12.17073319 -4 8 C-3.34 8 -2.68 8 -2 8 C-1.855625 6.865625 -1.71125 5.73125 -1.5625 4.5625 C-1 1 -1 1 0 0 Z " fill="#599585" transform="translate(756,480)"/>
<path d="M0 0 C3.96 0.33 7.92 0.66 12 1 C12.94378189 24.34174859 13.12003621 47.6409542 13 71 C8.40220379 72.53259874 4.59993535 72.66061417 0 71 C-3.44585081 67.69605531 -5.77402482 63.80869813 -8.25 59.75 C-8.97129762 58.6210578 -9.69586884 57.49420094 -10.42358398 56.36938477 C-11.9080449 54.06655537 -13.37514893 51.75402783 -14.82958984 49.43212891 C-17.47763602 45.22010411 -20.24799139 41.09230959 -23.02661133 36.96557617 C-25.70084748 32.98805476 -28.34780466 28.99225193 -31 25 C-31.33 40.18 -31.66 55.36 -32 71 C-42 72 -42 72 -45 72 C-45 48.57 -45 25.14 -45 1 C-32 1 -32 1 -28.83203125 3.9921875 C-27.75585938 5.87890625 -27.75585938 5.87890625 -26.8125 7.875 C-26.11155266 9.16453882 -25.40976482 10.45362122 -24.70703125 11.7421875 C-24.14371094 12.81726563 -23.58039063 13.89234375 -23 15 C-22.34 15.66 -21.68 16.32 -21 17 C-19.93330954 18.60868453 -18.89587212 20.23685637 -17.875 21.875 C-12.48830329 30.42638103 -6.87472899 38.77537942 -1 47 C-0.67 31.49 -0.34 15.98 0 0 Z " fill="#5E9A8C" transform="translate(439,480)"/>
<path d="M0 0 C0.78375 0.680625 1.5675 1.36125 2.375 2.0625 C2.375 2.7225 2.375 3.3825 2.375 4.0625 C3.06207031 3.64097656 3.74914062 3.21945312 4.45703125 2.78515625 C5.35808594 2.23730469 6.25914062 1.68945312 7.1875 1.125 C8.08082031 0.57972656 8.97414063 0.03445313 9.89453125 -0.52734375 C14.68004932 -3.24792961 19.08325434 -3.7174472 24.46875 -2.44140625 C29.11832634 -0.90600511 31.72608026 0.78347581 34.375 5.0625 C40.20253269 17.70310399 37.47908131 35.46787991 37.375 49.0625 C38.035 49.3925 38.695 49.7225 39.375 50.0625 C36.39619115 51.05543628 34.35898802 51.19656411 31.25 51.1875 C30.36054687 51.19007813 29.47109375 51.19265625 28.5546875 51.1953125 C26.375 51.0625 26.375 51.0625 25.375 50.0625 C25.22800682 47.78145377 25.14737725 45.49608586 25.09375 43.2109375 C25.07534058 42.51868073 25.05693115 41.82642395 25.03796387 41.1131897 C24.97905618 38.88804867 24.92639433 36.66282644 24.875 34.4375 C24.82336513 32.23360783 24.77021512 30.02981 24.71203613 27.82608032 C24.65887392 25.81042382 24.61151285 23.7946168 24.56445312 21.77880859 C24.3784198 18.12958264 23.95024788 14.66595054 23.375 11.0625 C22.715 11.0625 22.055 11.0625 21.375 11.0625 C21.375 10.4025 21.375 9.7425 21.375 9.0625 C14.39270154 8.70740083 14.39270154 8.70740083 8.375 12.0625 C6.8763447 15.05981061 6.99229307 18.20428589 6.8125 21.5 C6.74881226 22.61072876 6.74881226 22.61072876 6.68383789 23.74389648 C6.2294579 32.51425316 6.28827082 41.28357933 6.375 50.0625 C3.49288698 51.02320434 1.67649956 51.16831883 -1.3125 51.125 C-2.52486328 51.11146484 -2.52486328 51.11146484 -3.76171875 51.09765625 C-4.37660156 51.08605469 -4.99148438 51.07445312 -5.625 51.0625 C-7.14983511 43.08643941 -6.6102544 35.01581916 -6.41015625 26.93359375 C-6.33244045 20.55383342 -6.31875962 15.62081715 -9.625 10.0625 C-12.9898047 8.38009765 -16.35099071 8.63783024 -19.875 9.8125 C-22.14022743 11.43051959 -22.6373638 12.43476683 -23.625 15.0625 C-23.86118702 17.84683032 -23.99707848 20.5410743 -24.0390625 23.328125 C-24.05842865 24.12152283 -24.0777948 24.91492065 -24.0977478 25.73236084 C-24.15738361 28.25896557 -24.20386443 30.78561625 -24.25 33.3125 C-24.28819455 35.02866537 -24.32724715 36.74481187 -24.3671875 38.4609375 C-24.46307186 42.66130456 -24.54716167 46.86176134 -24.625 51.0625 C-28.585 51.0625 -32.545 51.0625 -36.625 51.0625 C-36.625 33.5725 -36.625 16.0825 -36.625 -1.9375 C-32.995 -1.9375 -29.365 -1.9375 -25.625 -1.9375 C-24.965 -0.6175 -24.305 0.7025 -23.625 2.0625 C-22.7175 1.423125 -21.81 0.78375 -20.875 0.125 C-14.54102431 -3.89463842 -6.48571653 -4.13850483 0 0 Z " fill="#5A9687" transform="translate(639.625,500.9375)"/>
<path d="M0 0 C0.78375 0.639375 1.5675 1.27875 2.375 1.9375 C3.035 0.6175 3.695 -0.7025 4.375 -2.0625 C8.005 -2.0625 11.635 -2.0625 15.375 -2.0625 C16.53203924 0.25157848 16.50172675 1.57789446 16.50439453 4.15258789 C16.50754669 5.02432144 16.51069885 5.89605499 16.51394653 6.79420471 C16.5119223 7.73996872 16.50989807 8.68573273 16.5078125 9.66015625 C16.50876923 10.63480331 16.50972595 11.60945038 16.51071167 12.6136322 C16.51139337 14.68244491 16.50953982 16.75125974 16.50537109 18.82006836 C16.50006287 21.96277795 16.50529549 25.10534199 16.51171875 28.24804688 C16.51105718 30.26041698 16.50977439 32.27278699 16.5078125 34.28515625 C16.50983673 35.21675064 16.51186096 36.14834503 16.51394653 37.10816956 C16.44575101 56.4450874 16.44575101 56.4450874 9.54296875 63.921875 C2.59503997 70.35169819 -3.7195529 71.45869583 -13.0703125 71.3203125 C-19.64914786 70.61182254 -24.58469445 68.07982082 -29.125 63.3125 C-29.62 62.52875 -30.115 61.745 -30.625 60.9375 C-31.285 59.9475 -31.945 58.9575 -32.625 57.9375 C-32.625 56.9475 -32.625 55.9575 -32.625 54.9375 C-31.985625 54.81375 -31.34625 54.69 -30.6875 54.5625 C-30.006875 54.35625 -29.32625 54.15 -28.625 53.9375 C-28.295 53.2775 -27.965 52.6175 -27.625 51.9375 C-24.75 51.75 -24.75 51.75 -21.625 51.9375 C-19.625 54.9375 -19.625 54.9375 -19.625 57.9375 C-14.06750936 59.94765619 -9.40767388 60.45355682 -3.625 58.9375 C-0.16378826 56.77424266 1.08241598 55.81525207 2.375 51.9375 C2.41454234 49.60450175 2.41901732 47.27041811 2.375 44.9375 C1.446875 45.576875 0.51875 46.21625 -0.4375 46.875 C-5.5428773 50.17847943 -9.70838725 50.46491281 -15.625 49.9375 C-22.66621457 48.34349955 -26.36033541 44.78450692 -30.8125 39.1875 C-35.11267277 31.47684538 -35.32477336 23.51464586 -33.625 14.9375 C-31.21376248 7.54788846 -27.43939928 2.69852422 -20.625 -1.0625 C-14.00858858 -3.88060116 -6.15292604 -4.08740477 0 0 Z M-18.625 10.9375 C-22.30309244 16.5859991 -23.31385922 22.59958262 -21.9375 29.125 C-20.85572126 32.77152567 -19.42984242 35.28848216 -16.625 37.9375 C-11.94472979 40.2776351 -7.57641016 40.47907306 -2.625 38.9375 C1.00733539 36.41065799 2.6227262 33.98793257 3.8125 29.8125 C4.82587572 23.98558958 4.55901352 17.2099163 1.19140625 12.1640625 C-2.00083155 8.88657206 -4.47451216 7.77750984 -8.9375 7.6875 C-12.99433781 7.75261778 -15.48843534 8.16994295 -18.625 10.9375 Z " fill="#5B9788" transform="translate(881.625,501.0625)"/>
<path d="M0 0 C5.49569041 6.15402832 6.14434686 11.36466493 6.31640625 19.484375 C6.33718735 20.29996887 6.35796844 21.11556274 6.37937927 21.95587158 C6.44461297 24.55383105 6.50363768 27.15188913 6.5625 29.75 C6.60571014 31.514333 6.64932522 33.27865613 6.69335938 35.04296875 C6.80026745 39.36187884 6.90160827 43.68088784 7 48 C2.66419545 48.68943889 -0.72885032 49.164859 -5 48 C-5.33 47.01 -5.66 46.02 -6 45 C-6.5775 45.28875 -7.155 45.5775 -7.75 45.875 C-8.4925 46.24625 -9.235 46.6175 -10 47 C-10.57621094 47.34546875 -11.15242187 47.6909375 -11.74609375 48.046875 C-16.93690137 50.24194789 -23.9231606 49.93366161 -29.265625 48.3125 C-33.45997939 46.12414119 -35.85160096 43.13153661 -38 39 C-39.45116391 34.12823544 -38.87962753 30.69906882 -37 26 C-32.59257947 20.45924277 -27.23714736 18.15095141 -20.37890625 17.26953125 C-18.77455659 17.1058221 -17.16899577 16.95360237 -15.5625 16.8125 C-14.32209961 16.6897168 -14.32209961 16.6897168 -13.05664062 16.56445312 C-11.03873118 16.36616145 -9.01947588 16.18164598 -7 16 C-7.26393501 12.56769552 -7.26393501 12.56769552 -8 9 C-12.02702645 6.3153157 -15.2713959 6.4356458 -20 7 C-23.28931514 8.72689045 -23.8140267 9.4420801 -25 13 C-28.96 13 -32.92 13 -37 13 C-36.77372708 7.45631337 -35.48127627 4.55853035 -31.67578125 0.5078125 C-23.072449 -7.23318109 -8.93730803 -6.7923541 0 0 Z M-13.8125 25.3125 C-14.85019531 25.39113281 -15.88789062 25.46976563 -16.95703125 25.55078125 C-19.95316011 25.99308525 -22.29290361 26.65374201 -25 28 C-26.41441874 30.82883747 -26.31900332 32.87376745 -26 36 C-24.20869086 38.33649018 -22.79823475 38.89277444 -19.90625 39.28125 C-15.18650822 39.47003967 -11.68590501 39.23912865 -8 36 C-6.12097155 32.59985328 -5.77999024 29.85017077 -6 26 C-8.75872018 24.62063991 -10.75098597 25.05957591 -13.8125 25.3125 Z " fill="#5A9687" transform="translate(551,503)"/>
<path d="M0 0 C5.3248679 5.71449238 6.00038318 10.57598964 5.890625 18.05078125 C5.88875183 18.92776169 5.88687866 19.80474213 5.88494873 20.70829773 C5.87825397 22.55142043 5.86439104 24.39452955 5.84375 26.23754883 C5.81241031 29.07060826 5.80275762 31.90311199 5.796875 34.73632812 C5.78771186 36.52865268 5.77733829 38.32097155 5.765625 40.11328125 C5.75925018 41.38973259 5.75925018 41.38973259 5.75274658 42.69197083 C5.67970126 48.63279874 5.67970126 48.63279874 4.5625 49.75 C2.56640625 49.91796875 2.56640625 49.91796875 0.125 49.9375 C-0.67808594 49.95167969 -1.48117187 49.96585938 -2.30859375 49.98046875 C-4.4375 49.75 -4.4375 49.75 -6.4375 47.75 C-9.39190416 47.55351473 -9.39190416 47.55351473 -11.72265625 48.7265625 C-16.78259479 50.63405012 -22.1171165 50.29275953 -27.4375 49.75 C-31.94415768 47.61526742 -34.6116532 44.83177871 -37.4375 40.75 C-39.00590852 36.04477445 -38.98645539 32.22351184 -37.25 27.5625 C-33.9204996 22.39603386 -30.24636369 20.38312053 -24.4375 18.75 C-21.32313989 18.25433473 -18.20058751 17.93030038 -15.0625 17.625 C-14.23105469 17.53863281 -13.39960938 17.45226562 -12.54296875 17.36328125 C-10.50842853 17.15281157 -8.4730403 16.95056686 -6.4375 16.75 C-6.70143501 13.31769552 -6.70143501 13.31769552 -7.4375 9.75 C-11.46452645 7.0653157 -14.7088959 7.1856458 -19.4375 7.75 C-22.72681514 9.47689045 -23.2515267 10.1920801 -24.4375 13.75 C-28.0675 13.75 -31.6975 13.75 -35.4375 13.75 C-36.4375 9.75 -36.4375 9.75 -35.3125 6.8125 C-32.71898443 2.57642457 -30.26502428 -0.41930714 -25.6875 -2.5 C-17.1042522 -4.48074949 -7.47645746 -5.73688567 0 0 Z M-17.625 26.625 C-18.67042969 26.78742187 -19.71585937 26.94984375 -20.79296875 27.1171875 C-23.57550175 27.53924601 -23.57550175 27.53924601 -25.4375 29.75 C-26.01509699 34.52376477 -26.01509699 34.52376477 -24 38.6875 C-19.15222627 40.69755252 -14.36410434 40.48784847 -9.5 38.625 C-6.80152788 36.17184353 -6.14898486 34.30742428 -5.4375 30.75 C-5.72389786 27.97252318 -5.72389786 27.97252318 -6.4375 25.75 C-10.26546836 25.65093982 -13.84637056 26.01478655 -17.625 26.625 Z " fill="#5A9687" transform="translate(498.4375,502.25)"/>
<path d="M0 0 C3.91259194 4.05709108 6.13115143 7.37578399 6.11352539 13.10424805 C6.11344986 13.92487228 6.11337433 14.74549652 6.11329651 15.59098816 C6.10813522 16.47232925 6.10297394 17.35367035 6.09765625 18.26171875 C6.0962413 19.16751175 6.09482635 20.07330475 6.09336853 21.00654602 C6.08777001 23.90023091 6.07521781 26.79383849 6.0625 29.6875 C6.05748481 31.64908742 6.05292193 33.61067606 6.04882812 35.57226562 C6.03780107 40.38154021 6.02053747 45.190757 6 50 C4.20906809 50.08086147 2.41710372 50.13912702 0.625 50.1875 C-0.87160156 50.23970703 -0.87160156 50.23970703 -2.3984375 50.29296875 C-3.25695312 50.19628906 -4.11546875 50.09960938 -5 50 C-5.66 49.01 -6.32 48.02 -7 47 C-6.34 47 -5.68 47 -5 47 C-5.09418815 42.85533855 -5.20041899 38.7112053 -5.31738281 34.56713867 C-5.35545293 33.15999602 -5.39034245 31.75276331 -5.421875 30.34545898 C-5.4680078 28.31201177 -5.52591568 26.27917293 -5.5859375 24.24609375 C-5.6173584 23.02591553 -5.6487793 21.8057373 -5.68115234 20.54858398 C-6.02015524 16.77568421 -6.69732113 13.55731538 -8 10 C-12.0016041 7.33226393 -15.29431148 7.28521187 -20 8 C-22.50160818 9.87620613 -23.61945652 11.23891303 -25 14 C-25.15660883 16.62380313 -25.2582908 19.22524852 -25.31640625 21.8515625 C-25.33718735 22.62559418 -25.35796844 23.39962585 -25.37937927 24.19711304 C-25.44483448 26.67298392 -25.50374087 29.14896202 -25.5625 31.625 C-25.60568907 33.30209448 -25.64930348 34.97917807 -25.69335938 36.65625 C-25.80051171 40.77072308 -25.90179045 44.88530414 -26 49 C-28.84894355 49.75397865 -31.29765254 50.11170579 -34.25 50.0625 C-36.10625 50.0315625 -36.10625 50.0315625 -38 50 C-39.25151326 47.49697348 -39.08375047 45.88918798 -39.02172852 43.09130859 C-38.99158409 41.55994766 -38.99158409 41.55994766 -38.96083069 39.99765015 C-38.93379562 38.89240997 -38.90676056 37.7871698 -38.87890625 36.6484375 C-38.85529526 35.5192691 -38.83168427 34.39010071 -38.80735779 33.22671509 C-38.73059782 29.60935272 -38.64662645 25.99219783 -38.5625 22.375 C-38.50929167 19.92709359 -38.4565512 17.47917696 -38.40429688 15.03125 C-38.27496595 9.02070119 -38.13916597 3.01032881 -38 -3 C-34.37 -3 -30.74 -3 -27 -3 C-26.34 -1.68 -25.68 -0.36 -25 1 C-24.113125 0.360625 -23.22625 -0.27875 -22.3125 -0.9375 C-15.47734812 -5.19334928 -6.45491387 -5.19979173 0 0 Z " fill="#5E9C8D" transform="translate(834,502)"/>
<path d="M0 0 C3.12688172 3.9157303 4.51488968 8.02761922 5 13 C1.04 13 -2.92 13 -7 13 C-7.66 11.35 -8.32 9.7 -9 8 C-12.14341993 6.42829004 -15.55771451 6.76824217 -19 7 C-19.99 7.33 -20.98 7.66 -22 8 C-22 9.65 -22 11.3 -22 13 C-17.68234723 15.06069791 -13.68886486 16.32289033 -9 17.3125 C-3.50259657 18.61615025 0.41975871 20.55076811 4 25 C5.72237197 30.1671159 5.65561622 35.10599758 3.875 40.25 C1.0252053 44.4296989 -2.10592971 47.36864324 -7 49 C-24.31882591 50.05701754 -24.31882591 50.05701754 -31.8125 43.5625 C-35.5205953 39.21873122 -36.26132573 36.74916611 -36 31 C-30.555 30.505 -30.555 30.505 -25 30 C-24.34 32.31 -23.68 34.62 -23 37 C-21.25181409 37.22304441 -19.50129677 37.4278645 -17.75 37.625 C-16.77546875 37.74101563 -15.8009375 37.85703125 -14.796875 37.9765625 C-11.86570607 38.00112537 -10.45471036 37.5312717 -8 36 C-8 34.02 -8 32.04 -8 30 C-9.74816858 29.49363393 -11.49862263 28.99515381 -13.25 28.5 C-14.22453125 28.2215625 -15.1990625 27.943125 -16.203125 27.65625 C-19.17023413 26.84771134 -19.17023413 26.84771134 -23 27 C-23 26.34 -23 25.68 -23 25 C-23.721875 24.9175 -24.44375 24.835 -25.1875 24.75 C-29.18444954 23.68414679 -31.96982436 21.71217345 -34.12109375 18.13671875 C-35.6351508 14.45587783 -35.55019831 10.90572874 -35 7 C-32.77581064 2.63399866 -30.1882919 -0.45060493 -26 -3 C-16.75853998 -5.99942124 -7.92219662 -5.90281317 0 0 Z " fill="#599586" transform="translate(940,503)"/>
<path d="M0 0 C1 1 1 1 1.09765625 3.72265625 C1.08605469 4.82480469 1.07445312 5.92695313 1.0625 7.0625 C1.05347656 8.16722656 1.04445313 9.27195312 1.03515625 10.41015625 C1.02355469 11.26480469 1.01195312 12.11945313 1 13 C0.41992188 12.96519531 -0.16015625 12.93039062 -0.7578125 12.89453125 C-5.90630916 12.716118 -9.68386325 12.84185116 -14 16 C-15.95960425 20.53517938 -16.23585732 24.46126474 -16.1953125 29.3671875 C-16.1924826 30.04677521 -16.18965271 30.72636292 -16.18673706 31.42654419 C-16.17562964 33.57621608 -16.15054391 35.72545614 -16.125 37.875 C-16.11495795 39.34113977 -16.10583425 40.80728614 -16.09765625 42.2734375 C-16.07572159 45.84909631 -16.04125814 49.42450594 -16 53 C-22.435 53.495 -22.435 53.495 -29 54 C-29 36.51 -29 19.02 -29 1 C-25.04 1 -21.08 1 -17 1 C-16.67 2.32 -16.34 3.64 -16 5 C-15.62875 4.54625 -15.2575 4.0925 -14.875 3.625 C-10.5381889 -0.13356962 -5.52909433 -0.32524084 0 0 Z " fill="#5D9B8C" transform="translate(596,498)"/>
<path d="M0 0 C3.96 0 7.92 0 12 0 C12.82438231 3.29752924 13.12225329 5.54375037 13.11352539 8.86035156 C13.11344986 9.82104553 13.11337433 10.7817395 13.11329651 11.77154541 C13.10813522 12.80084167 13.10297394 13.83013794 13.09765625 14.890625 C13.0962413 15.95037537 13.09482635 17.01012573 13.09336853 18.10198975 C13.08777382 21.48468862 13.07522225 24.86732115 13.0625 28.25 C13.05748432 30.54426988 13.05292153 32.83854079 13.04882812 35.1328125 C13.03780611 40.75523094 13.02107321 46.37761073 13 52 C8.39452591 53.15136852 5.06005857 53 0 53 C0 35.51 0 18.02 0 0 Z " fill="#5F9D8F" transform="translate(773,499)"/>
<path d="M0 0 C3.96 0.33 7.92 0.66 12 1 C12.94378189 24.34174859 13.12003621 47.6409542 13 71 C8.40220379 72.53259874 4.59993535 72.66061417 0 71 C-3.44585081 67.69605531 -5.77402482 63.80869813 -8.25 59.75 C-8.97129762 58.6210578 -9.69586884 57.49420094 -10.42358398 56.36938477 C-11.9080449 54.06655537 -13.37514893 51.75402783 -14.82958984 49.43212891 C-18.12480677 44.19070393 -21.60584585 39.07315171 -25.0625 33.9375 C-26.22143995 32.1975382 -27.37913529 30.45674627 -28.53515625 28.71484375 C-29.013479 27.99417725 -29.49180176 27.27351074 -29.98461914 26.53100586 C-30.31969482 26.02577393 -30.65477051 25.52054199 -31 25 C-30.67 24.34 -30.34 23.68 -30 23 C-22.03680906 34.30610044 -14.18188731 45.68825942 -6.5 57.1875 C-6.09096436 57.79875732 -5.68192871 58.41001465 -5.26049805 59.03979492 C-3.54460034 61.6181296 -2.00745577 63.9815369 -0.84375 66.86328125 C1.62621913 70.22132816 1.62621913 70.22132816 11 70 C11 47.89 11 25.78 11 3 C8.03 3 5.06 3 2 3 C2 19.5 2 36 2 53 C-1.85544487 51.71485171 -2.39453777 50.26951289 -4.5625 46.875 C-5.27019531 45.781875 -5.97789062 44.68875 -6.70703125 43.5625 C-7.08166504 42.97855469 -7.45629883 42.39460937 -7.84228516 41.79296875 C-9.77670687 38.79710349 -11.76617704 35.83827871 -13.75 32.875 C-14.58880875 31.6173656 -15.42734222 30.35954755 -16.265625 29.1015625 C-16.92014648 28.11978027 -16.92014648 28.11978027 -17.58789062 27.11816406 C-22.72526042 19.41210938 -27.86263021 11.70605469 -33 4 C-36.63 3.67 -40.26 3.34 -44 3 C-44 24.78 -44 46.56 -44 69 C-44.33 69 -44.66 69 -45 69 C-45 46.56 -45 24.12 -45 1 C-32 1 -32 1 -28.83203125 3.9921875 C-27.75585938 5.87890625 -27.75585938 5.87890625 -26.8125 7.875 C-26.11155266 9.16453882 -25.40976482 10.45362122 -24.70703125 11.7421875 C-24.14371094 12.81726563 -23.58039063 13.89234375 -23 15 C-22.34 15.66 -21.68 16.32 -21 17 C-19.93330954 18.60868453 -18.89587212 20.23685637 -17.875 21.875 C-12.48830329 30.42638103 -6.87472899 38.77537942 -1 47 C-0.67 31.49 -0.34 15.98 0 0 Z " fill="#497B6B" transform="translate(439,480)"/>
<path d="M0 0 C1.0625 1.8125 1.0625 1.8125 2 4 C1.67 4.99 1.34 5.98 1 7 C1.2784375 8.1446875 1.2784375 8.1446875 1.5625 9.3125 C2 12 2 12 1.05322266 14.69384766 C-0.14400272 18.45203635 -0.31950683 21.64611793 -0.4140625 25.5859375 C-0.43342865 26.28772125 -0.4527948 26.989505 -0.4727478 27.71255493 C-0.53207569 29.93324999 -0.57873917 32.15399823 -0.625 34.375 C-0.66322302 35.88934434 -0.70227722 37.40366794 -0.7421875 38.91796875 C-0.83773734 42.61178831 -0.92193937 46.3057647 -1 50 C-3.97 50 -6.94 50 -10 50 C-10 33.83 -10 17.66 -10 1 C-7.03 1 -4.06 1 -1 1 C-0.67 0.67 -0.34 0.34 0 0 Z " fill="#5D9B8C" transform="translate(807,500)"/>
<path d="M0 0 C2.97 0 5.94 0 9 0 C9.103125 1.093125 9.20625 2.18625 9.3125 3.3125 C9.97307727 6.85559629 10.2027092 7.93243723 13 10 C12.01 11.485 12.01 11.485 11 13 C9.89855618 17.06410111 9.8044433 21.07432539 9.68359375 25.26953125 C9.66281265 25.95053391 9.64203156 26.63153656 9.62062073 27.33317566 C9.55562122 29.49285508 9.49647288 31.65264846 9.4375 33.8125 C9.3942675 35.28321456 9.35065175 36.75391791 9.30664062 38.22460938 C9.19999141 41.81628717 9.09858651 45.40809082 9 49 C6.03 49 3.06 49 0 49 C0 32.83 0 16.66 0 0 Z " fill="#5D9B8B" transform="translate(604,501)"/>
<path d="M0 0 C4.41563046 2.41464759 6.20752045 6.42230489 7.79296875 10.98046875 C9.77044212 23.74076859 8.89148048 37.11332119 8.79296875 49.98046875 C9.78296875 50.47546875 9.78296875 50.47546875 10.79296875 50.98046875 C7.8141599 51.97340503 5.77695677 52.11453286 2.66796875 52.10546875 C1.33378906 52.10933594 1.33378906 52.10933594 -0.02734375 52.11328125 C-2.20703125 51.98046875 -2.20703125 51.98046875 -3.20703125 50.98046875 C-3.35402443 48.69942252 -3.434654 46.41405461 -3.48828125 44.12890625 C-3.50669067 43.43664948 -3.5251001 42.7443927 -3.54406738 42.03115845 C-3.60297507 39.80601742 -3.65563692 37.58079519 -3.70703125 35.35546875 C-3.75866612 33.15157658 -3.81181613 30.94777875 -3.86999512 28.74404907 C-3.92315733 26.72839257 -3.9705184 24.71258555 -4.01757812 22.69677734 C-4.20361145 19.04755139 -4.63178337 15.58391929 -5.20703125 11.98046875 C-5.86703125 11.98046875 -6.52703125 11.98046875 -7.20703125 11.98046875 C-7.20703125 11.32046875 -7.20703125 10.66046875 -7.20703125 9.98046875 C-11.72320724 9.90392339 -15.79788342 9.87818179 -20.20703125 10.98046875 C-18.3740513 8.6383277 -17.24239006 7.99046146 -14.33203125 7.16796875 C-10.16717927 6.91807763 -7.67035645 7.77845162 -4.45703125 10.41796875 C-1.49969993 14.11463289 -2.07859748 18.45673852 -2.109375 22.9296875 C-2.11078995 23.70230423 -2.1122049 24.47492096 -2.11366272 25.27095032 C-2.11925659 27.73666264 -2.13180792 30.2022839 -2.14453125 32.66796875 C-2.14954704 34.34049348 -2.15410981 36.01301963 -2.15820312 37.68554688 C-2.16922401 41.78388921 -2.18648441 45.88216354 -2.20703125 49.98046875 C0.76296875 49.98046875 3.73296875 49.98046875 6.79296875 49.98046875 C6.72372395 44.85711903 6.63558221 39.734557 6.53051758 34.61181641 C6.49742582 32.87199703 6.46934568 31.13207436 6.4465332 29.39208984 C6.4126952 26.87943834 6.36036849 24.36772009 6.3046875 21.85546875 C6.29829758 21.0874292 6.29190765 20.31938965 6.2853241 19.52807617 C6.13999541 14.09379626 5.07636823 9.93628883 2.79296875 4.98046875 C-1.87359438 1.17102946 -5.72982941 0.34533595 -11.7109375 0.58203125 C-15.69692728 1.21829253 -18.78231877 2.93162329 -22.20703125 4.98046875 C-24.18703125 5.97046875 -24.18703125 5.97046875 -26.20703125 6.98046875 C-28.51703125 5.00046875 -30.82703125 3.02046875 -33.20703125 0.98046875 C-32.21703125 0.65046875 -31.22703125 0.32046875 -30.20703125 -0.01953125 C-28.01953125 1.29296875 -28.01953125 1.29296875 -26.20703125 2.98046875 C-26.20703125 3.64046875 -26.20703125 4.30046875 -26.20703125 4.98046875 C-25.51996094 4.55894531 -24.83289063 4.13742187 -24.125 3.703125 C-23.22394531 3.15527344 -22.32289063 2.60742188 -21.39453125 2.04296875 C-20.50121094 1.49769531 -19.60789062 0.95242188 -18.6875 0.390625 C-12.45749572 -3.15115696 -6.44978298 -2.65726069 0 0 Z " fill="#447666" transform="translate(668.20703125,500.01953125)"/>
<path d="M0 0 C3.96 0 7.92 0 12 0 C12.82438231 3.29752924 13.12225329 5.54375037 13.11352539 8.86035156 C13.11344986 9.82104553 13.11337433 10.7817395 13.11329651 11.77154541 C13.10813522 12.80084167 13.10297394 13.83013794 13.09765625 14.890625 C13.0962413 15.95037537 13.09482635 17.01012573 13.09336853 18.10198975 C13.08777382 21.48468862 13.07522225 24.86732115 13.0625 28.25 C13.05748432 30.54426988 13.05292153 32.83854079 13.04882812 35.1328125 C13.03780611 40.75523094 13.02107321 46.37761073 13 52 C8.39452591 53.15136852 5.06005857 53 0 53 C0 35.51 0 18.02 0 0 Z M2 2 C2 18.17 2 34.34 2 51 C4.97 51 7.94 51 11 51 C11 34.83 11 18.66 11 2 C8.03 2 5.06 2 2 2 Z " fill="#4C8070" transform="translate(773,499)"/>
<path d="M0 0 C5.55866973 1.58049414 10.30237822 4.19483359 15.3125 7 C16.18390625 7.48259277 17.0553125 7.96518555 17.953125 8.46240234 C24.58290066 12.15376329 31.13600437 15.96948578 37.6184082 19.9140625 C41.09873983 22.10282733 41.09873983 22.10282733 44.96289062 23.36865234 C47.74042643 24.2294754 48.98138204 25.93074584 51 28 C52.79048522 29.16463999 54.62195841 30.26761931 56.48046875 31.3203125 C57.55401611 31.93318115 58.62756348 32.5460498 59.73364258 33.17749023 C60.87341553 33.82016846 62.01318848 34.46284668 63.1875 35.125 C64.36851735 35.79749569 65.54909744 36.47075984 66.72924805 37.14477539 C69.07318861 38.48322885 71.41842408 39.81936303 73.76464844 41.15380859 C79.92531563 44.66927534 86.04008161 48.26166627 92.13476562 51.89013672 C93.4106979 52.64934982 94.68811575 53.40607029 95.96679688 54.16064453 C97.83674709 55.26608213 99.70044283 56.38133118 101.5625 57.5 C102.61566406 58.1290625 103.66882813 58.758125 104.75390625 59.40625 C105.49511719 59.9321875 106.23632812 60.458125 107 61 C107 61.66 107 62.32 107 63 C102.983979 61.53398795 99.51696914 59.60561175 95.87890625 57.3671875 C95.29769516 57.01165802 94.71648407 56.65612854 94.11766052 56.28982544 C92.26369963 55.15515696 90.41288642 54.0154867 88.5625 52.875 C80.15300051 47.70305053 71.70393803 42.63673479 63.11450195 37.76855469 C59.32262057 35.61535341 55.56393951 33.41010611 51.8125 31.1875 C45.80525677 27.64303333 39.78555592 24.12104957 33.75 20.625 C32.97567627 20.17600342 32.20135254 19.72700684 31.40356445 19.2644043 C27.02741505 16.73249248 22.63800432 14.22602245 18.234375 11.7421875 C16.80013184 10.93080322 16.80013184 10.93080322 15.33691406 10.10302734 C13.48189008 9.05482705 11.62455343 8.01070632 9.76464844 6.97119141 C8.92450195 6.49601074 8.08435547 6.02083008 7.21875 5.53125 C6.1040332 4.90573242 6.1040332 4.90573242 4.96679688 4.26757812 C3.02903738 3.01871426 1.55771638 1.69060214 0 0 Z " fill="#558C7D" transform="translate(93,397)"/>
<path d="M0 0 C3.63 0 7.26 0 11 0 C11 1.98 11 3.96 11 6 C10.67 4.68 10.34 3.36 10 2 C7.03 2 4.06 2 1 2 C1 18.17 1 34.34 1 51 C3.97 51 6.94 51 10 51 C9.97643433 49.60092407 9.97643433 49.60092407 9.95239258 48.17358398 C9.90102019 44.68654736 9.86353231 41.1999176 9.83520508 37.71264648 C9.82019278 36.20834983 9.79977647 34.70409639 9.77368164 33.19995117 C9.73696184 31.02772304 9.72019839 28.85607749 9.70703125 26.68359375 C9.6913208 25.37962646 9.67561035 24.07565918 9.65942383 22.73217773 C10.1178385 17.70867585 11.34145516 13.65854484 15 10 C15.66 9.67 16.32 9.34 17 9 C17.99 9.33 18.98 9.66 20 10 C19.21625 10.4125 18.4325 10.825 17.625 11.25 C14.73054178 13.17963881 14.15181779 13.8010137 13 17 C12.76417598 19.71215682 12.62803496 22.33201064 12.5859375 25.046875 C12.56657135 25.81807678 12.5472052 26.58927856 12.5272522 27.3838501 C12.46762923 29.83912205 12.42114086 32.29444133 12.375 34.75 C12.33680425 36.41798882 12.29775159 38.08595826 12.2578125 39.75390625 C12.16194209 43.83577943 12.07784765 47.91774493 12 52 C9.15105645 52.75397865 6.70234746 53.11170579 3.75 53.0625 C1.89375 53.0315625 1.89375 53.0315625 0 53 C-1.25151326 50.49697348 -1.08375047 48.88918798 -1.02172852 46.09130859 C-0.99158409 44.55994766 -0.99158409 44.55994766 -0.96083069 42.99765015 C-0.93379562 41.89240997 -0.90676056 40.7871698 -0.87890625 39.6484375 C-0.85529526 38.5192691 -0.83168427 37.39010071 -0.80735779 36.22671509 C-0.73059782 32.60935272 -0.64662645 28.99219783 -0.5625 25.375 C-0.50929167 22.92709359 -0.4565512 20.47917696 -0.40429688 18.03125 C-0.27496595 12.02070119 -0.13916597 6.01032881 0 0 Z " fill="#487C6D" transform="translate(796,499)"/>
<path d="M0 0 C2.09765625 0.3828125 2.09765625 0.3828125 4.16015625 2.0078125 C5.35534426 5.03562213 5.50978946 7.1544357 5.09765625 10.3828125 C3.46730861 13.0094837 2.19541412 13.35306011 -0.77734375 14.2578125 C-4.61691673 14.41139542 -6.06522345 13.97675106 -8.90234375 11.3828125 C-9.95308201 7.77089975 -10.30676209 5.50940645 -9.02734375 1.9453125 C-6.05030474 -0.24368677 -3.62764419 -0.17695825 0 0 Z " fill="#5B9787" transform="translate(781.90234375,480.6171875)"/>
<path d="M0 0 C3.96 0 7.92 0 12 0 C12 1.65 12 3.3 12 5 C11.34 5 10.68 5 10 5 C10 4.01 10 3.02 10 2 C7.36 2 4.72 2 2 2 C2 18.17 2 34.34 2 51 C4.97 51 7.94 51 11 51 C11 45.39 11 39.78 11 34 C11.33 34 11.66 34 12 34 C12.16742302 36.62495379 12.3339717 39.24995795 12.5 41.875 C12.54769531 42.62136719 12.59539063 43.36773438 12.64453125 44.13671875 C13 49.7734375 13 49.7734375 13 52 C6.565 52.495 6.565 52.495 0 53 C0 35.51 0 18.02 0 0 Z " fill="#4B7F6F" transform="translate(567,499)"/>
<path d="M0 0 C5.8404203 1.23825165 8.78296205 4.89811606 12.2109375 9.46875 C13.12129254 12.19981511 13.33309463 13.76768239 13.32446289 16.57299805 C13.32438736 17.39362228 13.32431183 18.21424652 13.32423401 19.05973816 C13.31907272 19.94107925 13.31391144 20.82242035 13.30859375 21.73046875 C13.3071788 22.63626175 13.30576385 23.54205475 13.30430603 24.47529602 C13.29870751 27.36898091 13.28615531 30.26258849 13.2734375 33.15625 C13.26842231 35.11783742 13.26385943 37.07942606 13.25976562 39.04101562 C13.24873857 43.85029021 13.23147497 48.659507 13.2109375 53.46875 C11.42000559 53.54961147 9.62804122 53.60787702 7.8359375 53.65625 C6.33933594 53.70845703 6.33933594 53.70845703 4.8125 53.76171875 C3.95398438 53.66503906 3.09546875 53.56835938 2.2109375 53.46875 C1.5509375 52.47875 0.8909375 51.48875 0.2109375 50.46875 C0.8709375 50.46875 1.5309375 50.46875 2.2109375 50.46875 C2.11644739 46.36073489 2.01015939 42.25320028 1.89355469 38.14575195 C1.85558453 36.75227927 1.8206798 35.35871919 1.7890625 33.96508789 C1.6120224 26.25554461 1.24764169 18.94494466 -0.7890625 11.46875 C2.22451649 14.35130382 3.18167431 15.58204396 3.32446289 19.90869141 C3.32430435 21.37924128 3.31864294 22.84979696 3.30859375 24.3203125 C3.3071788 25.09434418 3.30576385 25.86837585 3.30430603 26.66586304 C3.29870153 29.14186442 3.28614833 31.61777588 3.2734375 34.09375 C3.26842308 35.77083203 3.26386007 37.44791547 3.25976562 39.125 C3.24873065 43.23961806 3.23146304 47.35416878 3.2109375 51.46875 C6.1809375 51.46875 9.1509375 51.46875 12.2109375 51.46875 C12.14167264 46.48780315 12.05352199 41.50766495 11.94848633 36.52734375 C11.91540241 34.83602939 11.88731991 33.14460901 11.86450195 31.453125 C11.83064914 29.00996061 11.77832242 26.56775345 11.72265625 24.125 C11.71626633 23.37883423 11.7098764 22.63266846 11.70329285 21.8638916 C11.53005869 15.56135893 10.38642871 9.79829154 5.94921875 5.046875 C2.70623318 3.17787904 0.10485579 2.66801282 -3.6015625 2.21875 C-5.34373047 1.99445313 -5.34373047 1.99445313 -7.12109375 1.765625 C-8.00152344 1.66765625 -8.88195312 1.5696875 -9.7890625 1.46875 C-6.00703086 -1.05260442 -4.32955985 -0.6165069 0 0 Z " fill="#3D6D5E" transform="translate(826.7890625,498.53125)"/>
<path d="M0 0 C0.66 0.66 1.32 1.32 2 2 C1.26394531 2.04898437 0.52789063 2.09796875 -0.23046875 2.1484375 C-1.69419922 2.26058594 -1.69419922 2.26058594 -3.1875 2.375 C-4.15042969 2.44460938 -5.11335937 2.51421875 -6.10546875 2.5859375 C-9.04526741 3.0064755 -11.34666747 3.67333373 -14 5 C-14.3721042 6.32303717 -14.70630173 7.65737935 -15 9 C-17.0625 10.25 -17.0625 10.25 -19 11 C-19 8.36 -19 5.72 -19 3 C-21.97 3 -24.94 3 -28 3 C-28 19.17 -28 35.34 -28 52 C-24.7 52 -21.4 52 -18 52 C-18 52.33 -18 52.66 -18 53 C-21.63 53 -25.26 53 -29 53 C-29 35.84 -29 18.68 -29 1 C-25.37 1 -21.74 1 -18 1 C-17.34 2.32 -16.68 3.64 -16 5 C-15.0925 4.360625 -14.185 3.72125 -13.25 3.0625 C-8.65939454 0.14923115 -5.43737103 -0.35461115 0 0 Z " fill="#467868" transform="translate(632,498)"/>
<path d="M0 0 C2.18580649 2.07715529 3.90881685 4.21358686 5.625 6.6875 C12.20276355 15.4792425 20.93006963 21.07724765 30.11328125 26.80712891 C33.95924467 29.23872535 37.72691545 31.78897671 41.50512695 34.32397461 C44.50581349 36.33665426 47.51130312 38.33888811 50.54296875 40.3046875 C51.62191406 41.00851562 52.70085937 41.71234375 53.8125 42.4375 C54.76769531 43.05496094 55.72289062 43.67242187 56.70703125 44.30859375 C59 46 59 46 61 49 C55.92239732 47.30915388 51.74972421 44.3762908 47.33203125 41.43359375 C46.49717697 40.88067154 45.66232269 40.32774933 44.8021698 39.7580719 C43.03636014 38.58614797 41.27217906 37.41176698 39.50952148 36.23510742 C36.84510226 34.45922992 34.1719965 32.69703063 31.49804688 30.93554688 C3.43474003 12.32476979 3.43474003 12.32476979 0.34765625 1.76953125 C0.23292969 1.18558594 0.11820312 0.60164063 0 0 Z " fill="#528778" transform="translate(88,370)"/>
<path d="M0 0 C3.76384777 -0.55350702 4.93717714 -0.043976 8.125 2.1875 C13.09268986 6.70822547 14.85341178 11.25090441 15.20532227 17.85058594 C15.24692445 19.39506586 15.28367368 20.93968165 15.31640625 22.484375 C15.33718735 23.29996887 15.35796844 24.11556274 15.37937927 24.95587158 C15.44461297 27.55383105 15.50363768 30.15188913 15.5625 32.75 C15.60571014 34.514333 15.64932522 36.27865613 15.69335938 38.04296875 C15.80026745 42.36187884 15.90160827 46.68088784 16 51 C11.66419545 51.68943889 8.27114968 52.164859 4 51 C4 48.69 4 46.38 4 44 C4.33 44 4.66 44 5 44 C5 45.98 5 47.96 5 50 C7.64 50 10.28 50 13 50 C12.95562079 44.87649631 12.88555343 39.75419859 12.79248047 34.63134766 C12.76439297 32.89153686 12.74311806 31.15160135 12.72900391 29.41162109 C12.70740347 26.8987703 12.66067014 24.38739967 12.609375 21.875 C12.60814636 21.10696045 12.60691772 20.3389209 12.60565186 19.54760742 C12.4575471 13.98830842 11.09407737 9.6579993 8 5 C5.9787325 3.27957378 5.9787325 3.27957378 3.75 2.5 C3.04359375 2.2009375 2.3371875 1.901875 1.609375 1.59375 C1.07828125 1.3978125 0.5471875 1.201875 0 1 C0 0.67 0 0.34 0 0 Z " fill="#4E8373" transform="translate(542,500)"/>
<path d="M0 0 C1 1 1 1 1.09765625 3.72265625 C1.08605469 4.82480469 1.07445312 5.92695313 1.0625 7.0625 C1.05347656 8.16722656 1.04445313 9.27195312 1.03515625 10.41015625 C1.02355469 11.26480469 1.01195312 12.11945313 1 13 C0.41992188 12.96519531 -0.16015625 12.93039062 -0.7578125 12.89453125 C-5.90630916 12.716118 -9.68386325 12.84185116 -14 16 C-16.51533653 20.91089512 -16.59195096 26.5665049 -17 32 C-17.33 32 -17.66 32 -18 32 C-18.85919581 18.0619347 -18.85919581 18.0619347 -16.0625 14.25 C-12.24462896 11.44503352 -8.72310026 10.30621279 -4 10 C-3.34 10.33 -2.68 10.66 -2 11 C-2.66 10.34 -3.32 9.68 -4 9 C-4.125 5.875 -4.125 5.875 -4 3 C-8.05606165 3.46800711 -11.46588679 3.87953208 -15 6 C-14.375 4.125 -14.375 4.125 -13 2 C-8.6390375 -0.02835465 -4.76875143 -0.28051479 0 0 Z " fill="#4F8474" transform="translate(596,498)"/>
<path d="M0 0 C0.33 0 0.66 0 1 0 C1.53993763 6.61423598 0.99185395 10.60560277 -3 16 C-6.90379138 19.66719796 -11.2243436 19.44070775 -16.33203125 19.2890625 C-19.80520307 18.91275984 -22.18376751 18.07511868 -25 16 C-25.33 14.68 -25.66 13.36 -26 12 C-30.455 12.495 -30.455 12.495 -35 13 C-30.52906656 20.6366697 -30.52906656 20.6366697 -23 25 C-23.99 25.33 -24.98 25.66 -26 26 C-30.95079043 23.4169789 -34.39125072 19.97509265 -37 15 C-37 14.01 -37 13.02 -37 12 C-36.360625 11.87625 -35.72125 11.7525 -35.0625 11.625 C-34.381875 11.41875 -33.70125 11.2125 -33 11 C-32.67 10.34 -32.34 9.68 -32 9 C-29.125 8.8125 -29.125 8.8125 -26 9 C-24 12 -24 12 -24 15 C-17.36550959 17.3997093 -11.64723024 17.66503989 -5.125 14.6875 C-1.72209766 10.38382939 -1.02685964 5.30961568 0 0 Z " fill="#4B8070" transform="translate(886,544)"/>
<path d="M0 0 C0 0.66 0 1.32 0 2 C-1.98 2.99 -1.98 2.99 -4 4 C-2.35801636 4.03758423 -2.35801636 4.03758423 -0.68286133 4.07592773 C3.38935483 4.17030008 7.46141226 4.27044731 11.53344727 4.37231445 C13.29382608 4.41555069 15.05424378 4.4572335 16.81469727 4.49731445 C19.34924013 4.55529185 21.88358934 4.61890627 24.41796875 4.68359375 C25.59325386 4.70866249 25.59325386 4.70866249 26.7922821 4.73423767 C30.6332255 4.83770807 34.26179122 5.08578184 38 6 C38 6.33 38 6.66 38 7 C31.7832527 7.80662907 25.84889839 8.08868623 19.58984375 7.87890625 C18.73693253 7.85529526 17.8840213 7.83168427 17.00526428 7.80735779 C14.31580274 7.7315794 11.62669403 7.64719332 8.9375 7.5625 C7.09962589 7.50919306 5.26173524 7.45645348 3.42382812 7.40429688 C-1.05099913 7.27608254 -5.52553146 7.14015488 -10 7 C-8.60449526 2.81348579 -4.64858615 0 0 0 Z " fill="#598C7D" transform="translate(120,610)"/>
<path d="M0 0 C0.33 0 0.66 0 1 0 C1.02464928 5.25105442 1.04283568 10.50207545 1.05493164 15.75317383 C1.05997218 17.54094021 1.06680454 19.32870245 1.07543945 21.11645508 C1.0875173 23.68051168 1.09323094 26.24451397 1.09765625 28.80859375 C1.10281754 29.6127623 1.10797882 30.41693085 1.11329651 31.24546814 C1.11349215 33.16401715 1.06201983 35.08245368 1 37 C-0.58894072 38.58894072 -2.24801424 38.16998411 -4.4375 38.1875 C-5.24058594 38.20167969 -6.04367187 38.21585938 -6.87109375 38.23046875 C-9 38 -9 38 -11 36 C-13.9321163 35.78186325 -13.9321163 35.78186325 -16.0625 37 C-20.35278651 38.46052307 -24.50875388 38.15697559 -29 38 C-29 37.67 -29 37.34 -29 37 C-28.20335937 36.91363281 -27.40671875 36.82726562 -26.5859375 36.73828125 C-19.70076511 35.82528394 -15.96155147 34.83433221 -11 30 C-10.01 30 -9.02 30 -8 30 C-7.67 31.65 -7.34 33.3 -7 35 C-3.535 35.495 -3.535 35.495 0 36 C0 24.12 0 12.24 0 0 Z " fill="#427566" transform="translate(503,514)"/>
<path d="M0 0 C3.63 0 7.26 0 11 0 C12.15703924 2.31407848 12.12672675 3.64039446 12.12939453 6.21508789 C12.13254669 7.08682144 12.13569885 7.95855499 12.13894653 8.85670471 C12.1369223 9.80246872 12.13489807 10.74823273 12.1328125 11.72265625 C12.13376923 12.69730331 12.13472595 13.67195038 12.13571167 14.6761322 C12.13639337 16.74494491 12.13453982 18.81375974 12.13037109 20.88256836 C12.12506287 24.02527795 12.13029549 27.16784199 12.13671875 30.31054688 C12.13605718 32.32291698 12.13477439 34.33528699 12.1328125 36.34765625 C12.13483673 37.27925064 12.13686096 38.21084503 12.13894653 39.17066956 C12.08393498 54.76925781 12.08393498 54.76925781 9.45755005 57.75135803 C8.73606277 58.36943581 8.73606277 58.36943581 8 59 C8.15847412 58.25218262 8.31694824 57.50436523 8.48022461 56.73388672 C9.19832894 51.57527349 9.23623445 46.46074242 9.31640625 41.2578125 C9.3475779 39.57254959 9.3475779 39.57254959 9.37937927 37.85324097 C9.44457224 34.27722068 9.50361884 30.70112923 9.5625 27.125 C9.605714 24.69530525 9.6493292 22.2656176 9.69335938 19.8359375 C9.80022254 13.89069943 9.90204427 7.94539114 10 2 C7.36 2.33 4.72 2.66 2 3 C2 4.32 2 5.64 2 7 C1.34 7 0.68 7 0 7 C0 4.69 0 2.38 0 0 Z " fill="#447666" transform="translate(886,499)"/>
<path d="M0 0 C4.29 0 8.58 0 13 0 C13.33 3.63 13.66 7.26 14 11 C11.87491756 7.81237635 11.4979837 5.73487777 11 2 C8.03 2 5.06 2 2 2 C2.37253906 3.32515625 2.74507812 4.6503125 3.12890625 6.015625 C3.60727871 7.76027749 4.08511539 9.50507695 4.5625 11.25 C4.9327832 12.55904297 4.9327832 12.55904297 5.31054688 13.89453125 C5.53935547 14.73886719 5.76816406 15.58320313 6.00390625 16.453125 C6.21861572 17.22817383 6.4333252 18.00322266 6.65454102 18.80175781 C7.0298967 21.19024018 6.74681558 22.720964 6 25 C4.98857805 21.77429922 3.99291347 18.54394135 3 15.3125 C2.71382812 14.40048828 2.42765625 13.48847656 2.1328125 12.54882812 C1.86210938 11.66259766 1.59140625 10.77636719 1.3125 9.86328125 C1.06113281 9.05157471 0.80976562 8.23986816 0.55078125 7.40356445 C0 5 0 5 0 0 Z " fill="#497C6C" transform="translate(679,481)"/>
<path d="M0 0 C0.66 0 1.32 0 2 0 C4.23891142 5.45126259 5.47606294 10.13190493 6 16 C3.04816899 13.04816899 2.91336012 10.04488053 2 6 C0.02411524 8.96382714 -0.75701582 11.14955538 -1.7265625 14.54296875 C-2.190625 16.15268555 -2.190625 16.15268555 -2.6640625 17.79492188 C-2.98117187 18.91447266 -3.29828125 20.03402344 -3.625 21.1875 C-3.94984375 22.31865234 -4.2746875 23.44980469 -4.609375 24.61523438 C-5.41092049 27.40885615 -6.20759367 30.2037748 -7 33 C-7.33 33 -7.66 33 -8 33 C-7.36759717 25.73182094 -5.46023833 18.99346756 -3.4375 12 C-3.10814453 10.84371094 -2.77878906 9.68742187 -2.43945312 8.49609375 C-1.63153335 5.66252006 -0.81826057 2.83060143 0 0 Z " fill="#4C8171" transform="translate(722,498)"/>
<path d="M0 0 C4.44417716 1.58052955 8.33578813 3.87866282 12.3125 6.375 C13.34515991 7.02178711 13.34515991 7.02178711 14.39868164 7.68164062 C19.73545555 11.08035158 24.87055677 14.71230887 29.9375 18.5 C30.62948486 19.0161084 31.32146973 19.5322168 32.03442383 20.06396484 C36.86953109 23.73906218 36.86953109 23.73906218 38 26 C33.4644936 24.49100633 30.00030289 21.93474393 26.25 19.0625 C19.8192975 14.22365993 13.19606068 9.79416525 6.37207031 5.52954102 C1.1015023 2.20300459 1.1015023 2.20300459 0 0 Z " fill="#568C7E" transform="translate(175,399)"/>
<path d="M0 0 C4.03295336 1.78458186 7.44792892 4.36262002 11 6.9375 C11.61617187 7.38029297 12.23234375 7.82308594 12.8671875 8.27929688 C14.05469065 9.13424818 15.23971509 9.99265605 16.421875 10.85498047 C17.74830155 11.81737845 19.0911141 12.75713527 20.4375 13.69140625 C20.953125 14.12324219 21.46875 14.55507813 22 15 C22 15.66 22 16.32 22 17 C22.99 17.33 23.98 17.66 25 18 C24.67 18.99 24.34 19.98 24 21 C21.69 20.34 19.38 19.68 17 19 C17 18.34 17 17.68 17 17 C15.68 16.67 14.36 16.34 13 16 C13 15.34 13 14.68 13 14 C13.99 14 14.98 14 16 14 C15.5153125 13.61142822 15.030625 13.22285645 14.53125 12.82250977 C12.35164992 11.07228042 10.17578871 9.31746471 8 7.5625 C7.236875 6.95083984 6.47375 6.33917969 5.6875 5.70898438 C4.965625 5.12568359 4.24375 4.54238281 3.5 3.94140625 C2.8296875 3.40201416 2.159375 2.86262207 1.46875 2.30688477 C0.9840625 1.87561279 0.499375 1.44434082 0 1 C0 0.67 0 0.34 0 0 Z M17 15 C17.33 15.66 17.66 16.32 18 17 C18.66 16.67 19.32 16.34 20 16 C19.01 15.67 18.02 15.34 17 15 Z " fill="#568F80" transform="translate(188,446)"/>
<path d="M0 0 C2.27576222 1.22501615 3.49373608 2.6849357 4.734375 4.93359375 C0.06224385 3.11665386 0.06224385 3.11665386 -2.140625 1.88671875 C-6.62417898 -0.12428708 -11.97708101 0.10565633 -16.5546875 1.76171875 C-18.51454734 2.74531882 -20.38450096 3.80820513 -22.265625 4.93359375 C-24.245625 5.92359375 -24.245625 5.92359375 -26.265625 6.93359375 C-28.575625 4.95359375 -30.885625 2.97359375 -33.265625 0.93359375 C-32.275625 0.60359375 -31.285625 0.27359375 -30.265625 -0.06640625 C-28.078125 1.24609375 -28.078125 1.24609375 -26.265625 2.93359375 C-26.265625 3.59359375 -26.265625 4.25359375 -26.265625 4.93359375 C-25.57855469 4.51207031 -24.89148438 4.09054687 -24.18359375 3.65625 C-23.28253906 3.10839844 -22.38148438 2.56054688 -21.453125 1.99609375 C-20.55980469 1.45082031 -19.66648437 0.90554688 -18.74609375 0.34375 C-12.44705754 -3.23727689 -6.50984845 -2.63674094 0 0 Z " fill="#4F8473" transform="translate(668.265625,500.06640625)"/>
<path d="M0 0 C-0.556875 0.226875 -1.11375 0.45375 -1.6875 0.6875 C-4.00484444 2.00274955 -5.5408951 3.51526041 -7.37109375 5.42578125 C-17.27791563 15 -17.27791563 15 -21 15 C-20.65194869 12.1124632 -20.0725409 11.07115123 -17.9609375 9 C-4.41947225 -1.47315742 -4.41947225 -1.47315742 0 0 Z " fill="#93BFBE" transform="translate(248,578)"/>
<path d="M0 0 C0.66 0.33 1.32 0.66 2 1 C1.360625 1.78375 0.72125 2.5675 0.0625 3.375 C-3.18457328 7.50763872 -3.47305897 10.3447072 -3.3984375 15.5234375 C-3.16591475 18.30637857 -3.16591475 18.30637857 -0.5625 20.9375 C3.24531663 23.51257024 7.59989316 24.79730413 12 26 C12 26.33 12 26.66 12 27 C10.02 27.33 8.04 27.66 6 28 C6 27.34 6 26.68 6 26 C5.278125 25.9175 4.55625 25.835 3.8125 25.75 C-0.18444954 24.68414679 -2.96982436 22.71217345 -5.12109375 19.13671875 C-6.63210775 15.46327582 -6.56741431 11.89759591 -6 8 C-4.26016146 4.81029602 -2.55304507 2.55304507 0 0 Z " fill="#4B7E6E" transform="translate(911,502)"/>
<path d="M0 0 C3.49139062 1.83408494 5.60712966 4.06377001 7.15234375 7.74609375 C8.06917905 11.26555829 8.19907388 14.24537978 8.125 17.875 C8.10695313 19.02742187 8.08890625 20.17984375 8.0703125 21.3671875 C8.04710937 22.23601563 8.02390625 23.10484375 8 24 C7.67 24 7.34 24 7 24 C6.89042969 23.05898438 6.78085937 22.11796875 6.66796875 21.1484375 C6.50941406 19.90320313 6.35085938 18.65796875 6.1875 17.375 C6.03667969 16.14523437 5.88585937 14.91546875 5.73046875 13.6484375 C4.84548391 9.22824582 3.89244964 5.35341173 0.09375 2.63671875 C-2.21566688 1.93441474 -4.08858764 1.76707956 -6.5 1.8125 C-7.2528125 1.81894531 -8.005625 1.82539063 -8.78125 1.83203125 C-10.95990143 1.99696437 -12.90204811 2.40399094 -15 3 C-10.62790901 -1.78848061 -5.96928815 -1.47704229 0 0 Z " fill="#487B6A" transform="translate(879,508)"/>
<path d="M0 0 C3.51233917 1.34016746 6.78915566 2.88247044 10.08984375 4.6796875 C11.03923828 5.19660156 11.98863281 5.71351563 12.96679688 6.24609375 C13.94712891 6.78363281 14.92746094 7.32117188 15.9375 7.875 C16.91396484 8.40480469 17.89042969 8.93460937 18.89648438 9.48046875 C23.74940487 12.13230191 28.46939934 14.82627974 33 18 C32.01 18.495 32.01 18.495 31 19 C28.84863281 18.05957031 28.84863281 18.05957031 26.203125 16.578125 C25.2440625 16.04703125 24.285 15.5159375 23.296875 14.96875 C22.29140625 14.4015625 21.2859375 13.834375 20.25 13.25 C18.27651442 12.15019293 16.30256858 11.05121127 14.328125 9.953125 C12.937146 9.17449097 12.937146 9.17449097 11.51806641 8.38012695 C9.51238109 7.28083094 7.46865906 6.2510108 5.4140625 5.24609375 C2.75150142 3.8717297 1.56665756 2.5240594 0 0 Z " fill="#558B7C" transform="translate(128,450)"/>
<path d="M0 0 C0.66 2.31 1.32 4.62 2 7 C6.29 7.66 10.58 8.32 15 9 C15 9.33 15 9.66 15 10 C6.13826035 10.46459606 6.13826035 10.46459606 1.9375 8.75 C-0.18436938 6.83347282 -0.70926678 5.81042113 -1 3 C-3.64 3 -6.28 3 -9 3 C-9 4.65 -9 6.3 -9 8 C-9.66 7.67 -10.32 7.34 -11 7 C-11 5.02 -11 3.04 -11 1 C-7.26513121 0.4254048 -3.78706732 0 0 0 Z " fill="#4D8373" transform="translate(915,533)"/>
<path d="M0 0 C4.95 0 9.9 0 15 0 C14.67 1.65 14.34 3.3 14 5 C9.71 5 5.42 5 1 5 C1.33 4.01 1.66 3.02 2 2 C1.34 1.34 0.68 0.68 0 0 Z " fill="#5F9D8F" transform="translate(531,522)"/>
<path d="M0 0 C1.175625 1.2375 1.175625 1.2375 2.375 2.5 C5.58086014 5.55320014 7.6624878 5.74485222 12 6 C12.33 5.34 12.66 4.68 13 4 C13.33 5.32 13.66 6.64 14 8 C10.04 8 6.08 8 2 8 C1.34 6.35 0.68 4.7 0 3 C-2.43387753 1.78306124 -4.41838846 1.68040104 -7.125 1.4375 C-8.03507813 1.35371094 -8.94515625 1.26992188 -9.8828125 1.18359375 C-10.58148437 1.12300781 -11.28015625 1.06242187 -12 1 C-12 0.67 -12 0.34 -12 0 C-3.88636364 -1.43181818 -3.88636364 -1.43181818 0 0 Z " fill="#4D8070" transform="translate(931,508)"/>
<path d="M0 0 C1.44272171 4.32816514 0.23393984 7.69285049 -0.75 12.0625 C-0.92015625 12.89072266 -1.0903125 13.71894531 -1.265625 14.57226562 C-1.52859375 15.76045898 -1.52859375 15.76045898 -1.796875 16.97265625 C-1.95510742 17.69718994 -2.11333984 18.42172363 -2.27636719 19.16821289 C-3 21 -3 21 -6 23 C-6.66 19.37 -7.32 15.74 -8 12 C-7.01 12.495 -7.01 12.495 -6 13 C-5.67 13.99 -5.34 14.98 -5 16 C-4.58427734 14.39318359 -4.58427734 14.39318359 -4.16015625 12.75390625 C-3.79445076 11.35672373 -3.42855554 9.95959085 -3.0625 8.5625 C-2.88009766 7.85544922 -2.69769531 7.14839844 -2.50976562 6.41992188 C-1.11328125 1.11328125 -1.11328125 1.11328125 0 0 Z " fill="#4D8373" transform="translate(748,512)"/>
<path d="M0 0 C2.70319191 2.44264329 4.38672851 5.13293834 6.25 8.25 C9.34375446 13.20131528 12.70279254 17.08571202 17 21 C18.33333333 22.33333333 19.66666667 23.66666667 21 25 C16.70952511 24.50494521 13.88455509 22.00939916 11 19 C0 5.09867173 0 5.09867173 0 0 Z " fill="#518678" transform="translate(96,417)"/>
<path d="M0 0 C2.1015625 0.390625 2.1015625 0.390625 4.2265625 2.140625 C5.23437288 4.73213741 5.10454894 5.83756861 4.1015625 8.390625 C3.76125 7.1840625 3.76125 7.1840625 3.4140625 5.953125 C2.35389252 3.18804474 2.35389252 3.18804474 -0.2734375 2.453125 C-3.13456259 2.38500297 -4.50414162 2.88310537 -6.8984375 4.390625 C-7.04993048 8.01947824 -7.04993048 8.01947824 -5.8984375 11.390625 C-6.8884375 11.390625 -7.8784375 11.390625 -8.8984375 11.390625 C-10.20094398 5.23332163 -10.20094398 5.23332163 -9.0234375 1.953125 C-6.04786558 -0.23479553 -3.62575681 -0.16534396 0 0 Z " fill="#4E8272" transform="translate(781.8984375,480.609375)"/>
<path d="M0 0 C4.41030857 2.13833143 7.06081947 5.11858844 10.1484375 8.8046875 C11.40916799 10.29947766 12.7082694 11.76254291 14.0390625 13.1953125 C14.68617188 13.89398438 15.33328125 14.59265625 16 15.3125 C16.8971875 16.26576172 16.8971875 16.26576172 17.8125 17.23828125 C18.204375 17.81964844 18.59625 18.40101563 19 19 C18.67 19.99 18.34 20.98 18 22 C16.66072279 20.54712339 15.32873153 19.08752741 14 17.625 C13.2575 16.81289063 12.515 16.00078125 11.75 15.1640625 C10 13 10 13 10 11 C9.34 11 8.68 11 8 11 C6.30859375 9.35546875 6.30859375 9.35546875 4.4375 7.1875 C3.81746094 6.47980469 3.19742188 5.77210938 2.55859375 5.04296875 C1 3 1 3 0 0 Z " fill="#5A9181" transform="translate(245,454)"/>
<path d="M0 0 C4.8330731 1.67445052 8.9473463 4.29149497 13.25 7 C13.9821875 7.45117188 14.714375 7.90234375 15.46875 8.3671875 C16.51289063 9.02074219 16.51289063 9.02074219 17.578125 9.6875 C18.21137695 10.08324219 18.84462891 10.47898437 19.49707031 10.88671875 C21 12 21 12 22 14 C19.03 13.01 16.06 12.02 13 11 C13 10.34 13 9.68 13 9 C12.34 8.773125 11.68 8.54625 11 8.3125 C7.11341372 6.6121185 3.36320183 4.60376916 0 2 C0 1.34 0 0.68 0 0 Z " fill="#599182" transform="translate(181,480)"/>
<path d="M0 0 C0.33 0.66 0.66 1.32 1 2 C-0.0621875 1.95359375 -1.124375 1.9071875 -2.21875 1.859375 C-12.38251275 1.54821489 -18.83859686 2.19883071 -27 9 C-25.15939423 4.89403329 -23.57346302 2.67434129 -19.375 0.875 C-12.81740384 -0.82511752 -6.64608385 -1.52306088 0 0 Z " fill="#487A6A" transform="translate(492,499)"/>
<path d="M0 0 C0.66 0.33 1.32 0.66 2 1 C0.10730953 2.91985828 -1.78899017 4.83591037 -3.6875 6.75 C-4.21794922 7.28882813 -4.74839844 7.82765625 -5.29492188 8.3828125 C-8.37931499 11.48612827 -11.51576273 14.33672402 -15 17 C-14.50059917 12.77957339 -12.15329394 10.81644785 -9.1875 7.9375 C-8.31480469 7.08027344 -7.44210937 6.22304688 -6.54296875 5.33984375 C-4.43463688 3.39991934 -2.33165618 1.65770428 0 0 Z " fill="#5C9284" transform="translate(286,456)"/>
<path d="M0 0 C0 0.99 0 1.98 0 3 C7.59 3.33 15.18 3.66 23 4 C23 4.33 23 4.66 23 5 C13.1 5 3.2 5 -7 5 C-4.7060466 3.27953495 -2.38585576 1.5905705 0 0 Z " fill="#64A193" transform="translate(121,610)"/>
<path d="M0 0 C0.99 0.33 1.98 0.66 3 1 C1.88625 1.5775 0.7725 2.155 -0.375 2.75 C-3.14997009 4.67285807 -3.91551814 5.7211736 -4.91015625 9.00390625 C-5.38829016 12.00375385 -5.76336276 14.97200924 -6 18 C-6.66 17.67 -7.32 17.34 -8 17 C-8.315109 11.7481833 -7.8689708 8.45185123 -5 4 C-2.5 1.5625 -2.5 1.5625 0 0 Z " fill="#4C8070" transform="translate(468,523)"/>
<path d="M0 0 C0.33 0 0.66 0 1 0 C1 2.64 1 5.28 1 8 C-4.28 8 -9.56 8 -15 8 C-11.71508627 5.81005752 -10.16904361 5.64722661 -6.3125 5.375 C-5.31863281 5.30023437 -4.32476563 5.22546875 -3.30078125 5.1484375 C-2.54152344 5.09945312 -1.78226563 5.05046875 -1 5 C-0.67 3.35 -0.34 1.7 0 0 Z " fill="#508879" transform="translate(545,514)"/>
<path d="M0 0 C0.33 0 0.66 0 1 0 C1.36188589 3.07603007 1.48300762 5.93238776 1 9 C-2.21128531 12.85354237 -4.44039839 14.15396776 -9.375 14.8125 C-11.169375 14.9053125 -11.169375 14.9053125 -13 15 C-10 13 -10 13 -6.5 12 C-3.7871888 10.91602259 -3.13110875 10.28277462 -1.87890625 7.58203125 C-1.1370834 5.06551258 -0.50697136 2.57348317 0 0 Z " fill="#4B8170" transform="translate(545,529)"/>
<path d="M0 0 C0.33 0.66 0.66 1.32 1 2 C0.06421005 4.35981813 -0.93347808 6.69631264 -2 9 C0.97 9 3.94 9 7 9 C7 9.66 7 10.32 7 11 C3.37 11 -0.26 11 -4 11 C-3.56179109 6.44262737 -3.14958831 3.42346555 0 0 Z " fill="#4C8170" transform="translate(518,505)"/>
<path d="M0 0 C4.33304076 0.64465202 7.86672065 2.18925122 11.8125 4.0625 C12.97394531 4.61035156 14.13539063 5.15820312 15.33203125 5.72265625 C16.21246094 6.14417969 17.09289062 6.56570313 18 7 C18 7.66 18 8.32 18 9 C11.48180123 7.10463724 5.82185199 4.4821006 0 1 C0 0.67 0 0.34 0 0 Z " fill="#558D7D" transform="translate(165,479)"/>
<path d="M0 0 C2.02408755 0.09002398 4.04544287 0.24641038 6.0625 0.4375 C7.71958984 0.59025391 7.71958984 0.59025391 9.41015625 0.74609375 C10.26480469 0.82988281 11.11945312 0.91367187 12 1 C12 1.99 12 2.98 12 4 C8.04 3.67 4.08 3.34 0 3 C-0.33 3.99 -0.66 4.98 -1 6 C-1.042721 4.33388095 -1.04063832 2.66617115 -1 1 C-0.67 0.67 -0.34 0.34 0 0 Z " fill="#4C816F" transform="translate(756,480)"/>
<path d="M0 0 C0.99 0.33 1.98 0.66 3 1 C-0.15901225 4.42978473 -2.57480271 6.52493424 -7 8 C-8.34050052 8.65213539 -9.67661368 9.31379969 -11 10 C-9.75330996 6.25992989 -8.31486492 5.48752843 -5.125 3.25 C-4.24070312 2.61578125 -3.35640625 1.9815625 -2.4453125 1.328125 C-1.23488281 0.67070312 -1.23488281 0.67070312 0 0 Z " fill="#578F81" transform="translate(300,445)"/>
<path d="M0 0 C-0.51949219 0.268125 -1.03898438 0.53625 -1.57421875 0.8125 C-7.17564539 3.96006691 -10.06613396 7.31563454 -13 13 C-13.33 12.01 -13.66 11.02 -14 10 C-11.30465812 4.83392807 -6.31430186 -2.10476729 0 0 Z " fill="#477B6A" transform="translate(864,501)"/>
<path d="M0 0 C3.63 0 7.26 0 11 0 C11 0.99 11 1.98 11 3 C8.03 3 5.06 3 2 3 C2 4.32 2 5.64 2 7 C1.34 7 0.68 7 0 7 C0 4.69 0 2.38 0 0 Z " fill="#4D8372" transform="translate(886,499)"/>
<path d="M0 0 C0.66 0 1.32 0 2 0 C2 1.65 2 3.3 2 5 C4.64 5 7.28 5 10 5 C10 5.66 10 6.32 10 7 C6.7 7 3.4 7 0 7 C-1 3 -1 3 0 0 Z " fill="#4D8272" transform="translate(463,509)"/>
<path d="M0 0 C0.66 0.33 1.32 0.66 2 1 C2 1.99 2 2.98 2 4 C2.66 4.33 3.32 4.66 4 5 C0.98509443 6.00496852 -1.04181692 6.10335303 -4.1875 6.0625 C-5.53908203 6.04896484 -5.53908203 6.04896484 -6.91796875 6.03515625 C-7.60503906 6.02355469 -8.29210937 6.01195312 -9 6 C-9 5.34 -9 4.68 -9 4 C-6.03 4 -3.06 4 0 4 C0 2.68 0 1.36 0 0 Z " fill="#518574" transform="translate(675,546)"/>
<path d="M0 0 C2.22189824 2.22189824 2.92598892 4.08482708 4 7 C4.66 6.67 5.32 6.34 6 6 C5.25 11.75 5.25 11.75 3 14 C2.49307308 12.4188708 1.99473557 10.83498617 1.5 9.25 C1.2215625 8.36828125 0.943125 7.4865625 0.65625 6.578125 C0 4 0 4 0 0 Z " fill="#4B8071" transform="translate(700,521)"/>
<path d="M0 0 C0.99 0.33 1.98 0.66 3 1 C2.27683594 1.51046875 2.27683594 1.51046875 1.5390625 2.03125 C-3.55137922 5.93738487 -5.01772332 8.6697725 -6 15 C-6.33 15 -6.66 15 -7 15 C-7.29445076 9.99433712 -7.11763863 7.00839253 -4 3 C-2 1.125 -2 1.125 0 0 Z " fill="#619F90" transform="translate(469,524)"/>
<path d="M0 0 C3.63 0 7.26 0 11 0 C11 1.65 11 3.3 11 5 C10.34 5 9.68 5 9 5 C9 4.01 9 3.02 9 2 C6.03 2 3.06 2 0 2 C0 1.34 0 0.68 0 0 Z " fill="#4D8271" transform="translate(568,499)"/>
<path d="M0 0 C4.97209562 1.76429199 9.43438061 4.3939166 14 7 C12.328125 7.67578125 12.328125 7.67578125 10 8 C7.421875 6.85546875 7.421875 6.85546875 4.75 5.1875 C3.85796875 4.64480469 2.9659375 4.10210937 2.046875 3.54296875 C1.37140625 3.03378906 0.6959375 2.52460938 0 2 C0 1.34 0 0.68 0 0 Z " fill="#558C7D" transform="translate(162,469)"/>
<path d="M0 0 C2.97 0 5.94 0 9 0 C9 0.66 9 1.32 9 2 C7.35 2 5.7 2 4 2 C3.855625 2.598125 3.71125 3.19625 3.5625 3.8125 C3.1127561 5.56150404 2.57107659 7.28677023 2 9 C0 3.375 0 3.375 0 0 Z " fill="#619F90" transform="translate(681,483)"/>
<path d="M0 0 C-0.99 1.485 -0.99 1.485 -2 3 C-2 2.34 -2 1.68 -2 1 C-7.28 1.66 -12.56 2.32 -18 3 C-14.77797851 0.85198568 -12.77828821 0.42832394 -9 -0.1875 C-7.948125 -0.36667969 -6.89625 -0.54585938 -5.8125 -0.73046875 C-3 -1 -3 -1 0 0 Z " fill="#8AB7B0" transform="translate(331,427)"/>
<path d="M0 0 C0.70125 0.495 1.4025 0.99 2.125 1.5 C5.37119719 3.1936681 7.39340156 3.25162315 11 3 C9.68 4.32 8.36 5.64 7 7 C4.13302508 5.71480435 2.02392288 4.42870746 0 2 C0 1.34 0 0.68 0 0 Z " fill="#8CBAB0" transform="translate(128,581)"/>
<path d="M0 0 C-0.33 2.31 -0.66 4.62 -1 7 C-1.66 6.01 -2.32 5.02 -3 4 C-5.475 5.485 -5.475 5.485 -8 7 C-8 6.34 -8 5.68 -8 5 C-7.34 4.67 -6.68 4.34 -6 4 C-5.67 3.01 -5.34 2.02 -5 1 C-3 0 -3 0 0 0 Z " fill="#578F7F" transform="translate(887,542)"/>
<path d="M0 0 C0.66 0.33 1.32 0.66 2 1 C0.54634731 2.17249353 -0.91307419 3.33783816 -2.375 4.5 C-3.18710938 5.1496875 -3.99921875 5.799375 -4.8359375 6.46875 C-7 8 -7 8 -9 8 C-9 7.34 -9 6.68 -9 6 C-7.03125 4.4921875 -7.03125 4.4921875 -4.5 2.875 C-3.6646875 2.33617187 -2.829375 1.79734375 -1.96875 1.2421875 C-1.3190625 0.83226562 -0.669375 0.42234375 0 0 Z " fill="#558A7C" transform="translate(148,589)"/>
<path d="M0 0 C3.66060821 0.58536753 5.54535164 2.083239 8.25 4.5625 C8.95640625 5.20316406 9.6628125 5.84382813 10.390625 6.50390625 C10.92171875 6.99761719 11.4528125 7.49132812 12 8 C8.21516391 8 7.22592069 6.89417485 4.3125 4.5625 C3.50425781 3.92441406 2.69601563 3.28632813 1.86328125 2.62890625 C1.24839844 2.09136719 0.63351563 1.55382812 0 1 C0 0.67 0 0.34 0 0 Z " fill="#588F80" transform="translate(213,426)"/>
<path d="M0 0 C-1.33333333 0.66666667 -2.66666667 1.33333333 -4 2 C-5.010625 2.515625 -6.02125 3.03125 -7.0625 3.5625 C-10 5 -10 5 -13 6 C-12 3 -12 3 -9.3125 1.3125 C-5.91018714 -0.03558623 -3.61672729 -0.25833766 0 0 Z " fill="#4B8070" transform="translate(529,522)"/>
<path d="M0 0 C0.66 0.33 1.32 0.66 2 1 C0.71372289 2.17260611 -0.57919783 3.3379283 -1.875 4.5 C-2.59429687 5.1496875 -3.31359375 5.799375 -4.0546875 6.46875 C-6 8 -6 8 -8 8 C-6.88333826 4.65001479 -6.25305075 4.20659778 -3.4375 2.3125 C-2.79683594 1.87550781 -2.15617188 1.43851563 -1.49609375 0.98828125 C-1.00238281 0.66214844 -0.50867188 0.33601562 0 0 Z " fill="#598E80" transform="translate(192,555)"/>
<path d="M0 0 C1.97986082 0.11347619 3.95891598 0.2410935 5.9375 0.375 C7.03964844 0.44460938 8.14179687 0.51421875 9.27734375 0.5859375 C10.62505859 0.79089844 10.62505859 0.79089844 12 1 C12.33 1.66 12.66 2.32 13 3 C11.20906809 3.08086147 9.41710372 3.13912702 7.625 3.1875 C6.12839844 3.23970703 6.12839844 3.23970703 4.6015625 3.29296875 C3.74304688 3.19628906 2.88453125 3.09960938 2 3 C1.34 2.01 0.68 1.02 0 0 Z " fill="#4B8070" transform="translate(827,549)"/>
<path d="M0 0 C1.98 0.99 3.96 1.98 6 3 C5.34 3.66 4.68 4.32 4 5 C3.01 4.34 2.02 3.68 1 3 C0.67 4.65 0.34 6.3 0 8 C-0.33 8 -0.66 8 -1 8 C-1.04241723 5.66705225 -1.04092937 3.33297433 -1 1 C-0.67 0.67 -0.34 0.34 0 0 Z " fill="#5E9183" transform="translate(83,344)"/>
<path d="M0 0 C2.97 0.495 2.97 0.495 6 1 C5.34 2.32 4.68 3.64 4 5 C2.35 4.67 0.7 4.34 -1 4 C-0.67 2.68 -0.34 1.36 0 0 Z " fill="#75A99C" transform="translate(115,456)"/>
<path d="M0 0 C3.99500618 1.3697164 6.80009492 3.25722422 10 6 C6.05879291 5.43697042 3.2491277 4.3208055 0 2 C0 1.34 0 0.68 0 0 Z " fill="#538878" transform="translate(181,480)"/>
<path d="M0 0 C0.99 0.33 1.98 0.66 3 1 C0.36 2.98 -2.28 4.96 -5 7 C-3.38262276 3.76524552 -2.52370777 2.29427979 0 0 Z " fill="#578D7E" transform="translate(203,545)"/>
<path d="M0 0 C0.33 0 0.66 0 1 0 C1.33 1.98 1.66 3.96 2 6 C-0.475 7.485 -0.475 7.485 -3 9 C-3.66 8.34 -4.32 7.68 -5 7 C-4.0409375 6.6596875 -4.0409375 6.6596875 -3.0625 6.3125 C-0.72806339 5.14749104 -0.72806339 5.14749104 -0.25 2.375 C-0.1675 1.59125 -0.085 0.8075 0 0 Z " fill="#599082" transform="translate(933,534)"/>
<path d="M0 0 C0.99 0.33 1.98 0.66 3 1 C-0.75 4 -0.75 4 -3 4 C-3.33 4.99 -3.66 5.98 -4 7 C-4.66 6.67 -5.32 6.34 -6 6 C-2.25 1.125 -2.25 1.125 0 0 Z " fill="#467A69" transform="translate(813,500)"/>
<path d="M0 0 C0.33 0 0.66 0 1 0 C0.88590407 1.45922693 0.75834456 2.91740598 0.625 4.375 C0.55539062 5.18710937 0.48578125 5.99921875 0.4140625 6.8359375 C0 9 0 9 -2 11 C-2 8.03 -2 5.06 -2 2 C-1.34 2 -0.68 2 0 2 C0 1.34 0 0.68 0 0 Z " fill="#4A816F" transform="translate(765,485)"/>
<path d="M0 0 C1.32 0.33 2.64 0.66 4 1 C2.68 1.33 1.36 1.66 0 2 C0 1.34 0 0.68 0 0 Z " fill="#67A090" transform="translate(520,517)"/>
<path d="M0 0 C4 1 4 1 4 1 Z " fill="#659F91" transform="translate(483,510)"/>
<path d="M0 0 C0.66 0 1.32 0 2 0 C1.67 0.66 1.34 1.32 1 2 C0.67 1.34 0.34 0.68 0 0 Z " fill="#66A091" transform="translate(858,549)"/>
<path d="M0 0 C3 1 3 1 3 1 Z " fill="#68A092" transform="translate(928,533)"/>
<path d="" fill="#94BFBC" transform="translate(0,0)"/>
<path d="" fill="#639A8C" transform="translate(0,0)"/>
<path d="" fill="#659D8D" transform="translate(0,0)"/>
<path d="" fill="#679F90" transform="translate(0,0)"/>
<path d="" fill="#679E90" transform="translate(0,0)"/>
<path d="" fill="#68A193" transform="translate(0,0)"/>
<path d="M0 0 C2 1 2 1 2 1 Z " fill="#65A091" transform="translate(819,510)"/>
<path d="" fill="#699F91" transform="translate(0,0)"/>
<path d="M0 0 C2 1 2 1 2 1 Z " fill="#699F94" transform="translate(421,497)"/>
<path d="" fill="#70A99B" transform="translate(0,0)"/>
<path d="" fill="#95C0BE" transform="translate(0,0)"/>
<path d="" fill="#93C0BB" transform="translate(0,0)"/>
<path d="" fill="#97C2BE" transform="translate(0,0)"/>
<path d="" fill="#95C1BF" transform="translate(0,0)"/>
<path d="" fill="#8DBBB2" transform="translate(0,0)"/>
<path d="" fill="#8DBCB7" transform="translate(0,0)"/>
<path d="" fill="#659B8B" transform="translate(0,0)"/>
<path d="" fill="#97C2BB" transform="translate(0,0)"/>
<path d="" fill="#82B4AD" transform="translate(0,0)"/>
<path d="" fill="#699F92" transform="translate(0,0)"/>
<path d="" fill="#96C2BB" transform="translate(0,0)"/>
<path d="" fill="#67A08E" transform="translate(0,0)"/>
<path d="" fill="#629789" transform="translate(0,0)"/>
<path d="" fill="#67A092" transform="translate(0,0)"/>
<path d="" fill="#64998B" transform="translate(0,0)"/>
<path d="" fill="#669F8F" transform="translate(0,0)"/>
<path d="" fill="#69A190" transform="translate(0,0)"/>
<path d="" fill="#699E8E" transform="translate(0,0)"/>
<path d="" fill="#659C90" transform="translate(0,0)"/>
<path d="" fill="#659C8D" transform="translate(0,0)"/>
<path d="" fill="#679E8F" transform="translate(0,0)"/>
<path d="" fill="#67A194" transform="translate(0,0)"/>
<path d="" fill="#92BFBD" transform="translate(0,0)"/>
<path d="" fill="#85B7B1" transform="translate(0,0)"/>
<path d="" fill="#68A292" transform="translate(0,0)"/>
<path d="" fill="#669F91" transform="translate(0,0)"/>
<path d="" fill="#689F91" transform="translate(0,0)"/>
<path d="" fill="#689F90" transform="translate(0,0)"/>
<path d="" fill="#92BFBC" transform="translate(0,0)"/>
<path d="" fill="#84B6AA" transform="translate(0,0)"/>
<path d="" fill="#69A091" transform="translate(0,0)"/>
<path d="" fill="#66A190" transform="translate(0,0)"/>
<path d="" fill="#669D8F" transform="translate(0,0)"/>
<path d="" fill="#67A190" transform="translate(0,0)"/>
<path d="" fill="#67A092" transform="translate(0,0)"/>
<path d="" fill="#679F90" transform="translate(0,0)"/>
<path d="" fill="#6CA396" transform="translate(0,0)"/>
<path d="" fill="#6BA493" transform="translate(0,0)"/>
<path d="" fill="#66A091" transform="translate(0,0)"/>
<path d="" fill="#6AA093" transform="translate(0,0)"/>
<path d="" fill="#69A292" transform="translate(0,0)"/>
<path d="" fill="#68A294" transform="translate(0,0)"/>
<path d="" fill="#6BA493" transform="translate(0,0)"/>
<path d="" fill="#649E8D" transform="translate(0,0)"/>
<path d="" fill="#6A9F93" transform="translate(0,0)"/>
<path d="" fill="#68A090" transform="translate(0,0)"/>
<path d="" fill="#69A191" transform="translate(0,0)"/>
<path d="" fill="#68A092" transform="translate(0,0)"/>
<path d="" fill="#679F8F" transform="translate(0,0)"/>
<path d="" fill="#67A093" transform="translate(0,0)"/>
<path d="" fill="#65A08E" transform="translate(0,0)"/>
<path d="" fill="#67A292" transform="translate(0,0)"/>
<path d="" fill="#68A094" transform="translate(0,0)"/>
<path d="" fill="#66A192" transform="translate(0,0)"/>
<path d="" fill="#67A294" transform="translate(0,0)"/>
<path d="" fill="#66A18F" transform="translate(0,0)"/>
<path d="" fill="#66A090" transform="translate(0,0)"/>
<path d="" fill="#65A090" transform="translate(0,0)"/>
<path d="" fill="#67A091" transform="translate(0,0)"/>
<path d="" fill="#639C8C" transform="translate(0,0)"/>
<path d="" fill="#679E8F" transform="translate(0,0)"/>
<path d="" fill="#679E91" transform="translate(0,0)"/>
<path d="" fill="#639B8E" transform="translate(0,0)"/>
<path d="" fill="#689E8E" transform="translate(0,0)"/>
<path d="" fill="#659D8E" transform="translate(0,0)"/>
<path d="" fill="#669D8C" transform="translate(0,0)"/>
<path d="" fill="#669F91" transform="translate(0,0)"/>
<path d="" fill="#6AA18F" transform="translate(0,0)"/>
<path d="" fill="#629C8A" transform="translate(0,0)"/>
<path d="" fill="#639E90" transform="translate(0,0)"/>
<path d="" fill="#689E8F" transform="translate(0,0)"/>
<path d="" fill="#75A89C" transform="translate(0,0)"/>
<path d="" fill="#6DA79B" transform="translate(0,0)"/>
<path d="" fill="#70AB9F" transform="translate(0,0)"/>
<path d="" fill="#73AC9F" transform="translate(0,0)"/>
<path d="" fill="#73AB9C" transform="translate(0,0)"/>
<path d="" fill="#72AC9E" transform="translate(0,0)"/>
<path d="" fill="#71AC9E" transform="translate(0,0)"/>
<path d="" fill="#74AB9D" transform="translate(0,0)"/>
<path d="" fill="#90BEB5" transform="translate(0,0)"/>
<path d="" fill="#75AD9F" transform="translate(0,0)"/>
<path d="" fill="#75ADA0" transform="translate(0,0)"/>
<path d="" fill="#71A89C" transform="translate(0,0)"/>
<path d="" fill="#89BAAE" transform="translate(0,0)"/>
<path d="" fill="#73A999" transform="translate(0,0)"/>
<path d="" fill="#71AC9D" transform="translate(0,0)"/>
<path d="" fill="#8EBEB5" transform="translate(0,0)"/>
<path d="" fill="#73AC9B" transform="translate(0,0)"/>
<path d="" fill="#71A99B" transform="translate(0,0)"/>
<path d="" fill="#72A899" transform="translate(0,0)"/>
<path d="" fill="#8DBBB3" transform="translate(0,0)"/>
<path d="" fill="#72AA9E" transform="translate(0,0)"/>
<path d="" fill="#6FA99B" transform="translate(0,0)"/>
<path d="" fill="#95C1B8" transform="translate(0,0)"/>
<path d="" fill="#84B4A9" transform="translate(0,0)"/>
<path d="" fill="#86B7AE" transform="translate(0,0)"/>
<path d="" fill="#89B7AF" transform="translate(0,0)"/>
<path d="" fill="#7FB3A8" transform="translate(0,0)"/>
<path d="" fill="#85B6AA" transform="translate(0,0)"/>
<path d="" fill="#78B0A4" transform="translate(0,0)"/>
<path d="" fill="#6FA093" transform="translate(0,0)"/>
<path d="" fill="#6BA093" transform="translate(0,0)"/>
<path d="" fill="#6CA093" transform="translate(0,0)"/>
<path d="" fill="#6A9F8F" transform="translate(0,0)"/>
</svg>
